#N canvas 558 25 463 559 10;
#X obj 44 162 hsl 128 15 2 50 0 1 numsteps_playing numsteps_playing_rcv number_of_steps -2 8 1 12 #fc0400 #9c9c9c #fcfcfc 2646 1;
#X obj 44 258 hsl 128 15 0 1 0 1 randomchance randomchance_rcv chance_of_playback -2 8 1 12 #fc0400 #9c9c9c #fcfcfc 10846 1;
#X obj 44 277 hsl 128 15 0 1 0 1 pitchrange pitchrange_rcv pitch_range -2 8 1 12 #fc0400 #9c9c9c #fcfcfc 10846 1;
#X obj 40 55 tgl 15 1 playstop playstop_rcv Play_Stop 17 7 0 10 #fcfcfc #000000 #000000 1 1;
#X obj 44 121 hsl 128 15 0 1 0 1 rate rate_rcv playback_rate -2 8 1 12 #fc0400 #9c9c9c #fcfcfc 3175 1;
#X obj 44 315 hsl 128 15 0 1 0 1 reversechance reversechance_rcv chance_of_reverse -2 8 1 12 #fc0400 #9c9c9c #fcfcfc 10846 1;
#N canvas 61 31 818 680 guts 0;
#X obj 28 25 ys.audiomidisetup;
#X obj 46 343 *~;
#X obj 74 314 line~;
#X obj 64 231 r play;
#X msg 71 284 1 20;
#X obj 63 259 t b b;
#X msg 111 284 0;
#X obj 135 231 r stop;
#X obj 165 255 t b b;
#X text 171 118 argument is number of samples to play;
#X obj 69 434 sample_selector;
#X obj 79 194 sel 0 1;
#X obj 131 564 dac~;
#X msg 408 495 \; pd dsp 1;
#X obj 408 469 bng 15 250 50 0 empty empty empty 17 7 0 10 #fcfcfc #000000 #000000;
#X obj 408 413 loadbang;
#X obj 408 441 delay 1000;
#X obj 50 391 throw~ audiooutL;
#X obj 58 515 catch~ audiooutL;
#X obj 172 345 *~;
#X obj 176 393 throw~ audiooutR;
#X obj 188 513 catch~ audiooutR;
#X msg 146 277 0 1000;
#N canvas 355 25 845 853 clocking 0;
#X floatatom 164 85 5 0 0 0 - - - 0;
#X obj 71 515 s mastercounter;
#X obj 163 60 r rate;
#X obj 75 170 r playstop;
#X obj 184 538 s location_view;
#X obj 183 516 spigot;
#X obj 223 486 r playstop;
#X obj 77 211 tgl 15 0 empty empty empty 17 7 0 10 #fcfcfc #000000 #000000 0 1;
#X obj 79 281 bng 15 250 50 0 empty empty empty 17 7 0 10 #fcfcfc #000000 #000000;
#X obj 78 330 + 1;
#X floatatom 76 363 5 0 0 0 - - - 0;
#X msg 77 304 1;
#X obj 73 411 %;
#X obj 127 366 r numsteps_playing;
#X floatatom 73 432 5 0 0 0 - - - 0;
#X obj 77 248 metro 200;
#X msg 125 393 \; location_view range 0 \$1;
#X floatatom 184 174 5 0 0 0 - - - 0;
#X obj 183 221 abs;
#X floatatom 183 242 5 0 0 0 - - - 0;
#X obj 183 199 - 680;
#X obj 161 105 * 600;
#X obj 324 513 sel 0;
#X obj 322 542 bng 15 250 50 0 empty empty empty 17 7 0 10 #fcfcfc #000000 #000000;
#X msg 343 611 1;
#X msg 313 613 0;
#X obj 327 662 change;
#X obj 327 683 s loop_light;
#X connect 0 0 21 0;
#X connect 2 0 0 0;
#X connect 3 0 7 0;
#X connect 5 0 4 0;
#X connect 6 0 5 1;
#X connect 7 0 15 0;
#X connect 8 0 11 0;
#X connect 9 0 10 0;
#X connect 10 0 9 1;
#X connect 10 0 12 0;
#X connect 11 0 9 0;
#X connect 12 0 14 0;
#X connect 13 0 12 1;
#X connect 13 0 16 0;
#X connect 14 0 1 0;
#X connect 14 0 5 0;
#X connect 14 0 22 0;
#X connect 15 0 8 0;
#X connect 18 0 19 0;
#X connect 19 0 15 1;
#X connect 20 0 18 0;
#X connect 21 0 20 0;
#X connect 22 0 23 0;
#X connect 22 1 24 0;
#X connect 23 0 25 0;
#X connect 24 0 26 0;
#X connect 25 0 26 0;
#X connect 26 0 27 0;
#X restore 69 456 pd clocking;
#N canvas 697 302 707 446 dateseed 0;
#X msg 43 63 bang;
#X floatatom 39 128 0 0 0 0 - - - 0;
#X floatatom 138 123 0 0 0 0 - - - 0;
#X obj 42 14 loadbang;
#X obj 39 158 * 1000;
#X obj 41 191 +;
#X floatatom 40 219 15 0 0 0 - - - 0;
#X obj 66 301 s seed;
#X obj 117 300 print seed;
#X obj 40 253 t f b, f 9;
#X obj 133 93 zexy;
#X obj 43 92 date, f 11;
#X obj 40 325 change;
#X obj 40 347 t b;
#X obj 39 414 s masterbang;
#X msg 40 369 5;
#X obj 40 391 until;
#X obj 163 32 r playstop;
#X obj 164 57 sel 1;
#X obj 207 147 s year;
#X obj 273 132 s month;
#X obj 308 105 s day;
#X obj 307 277 pack 0 0 0;
#X obj 314 351 print;
#X obj 376 373 s title;
#X msg 314 329 set today is \$3/\$2/\$1 and today will never happen again;
#X obj 22 155 bng 15 250 50 0 empty empty empty 17 7 0 10 #fcfcfc #000000 #000000;
#X connect 0 0 11 0;
#X connect 1 0 4 0;
#X connect 1 0 19 0;
#X connect 2 0 5 1;
#X connect 3 0 0 0;
#X connect 4 0 5 0;
#X connect 5 0 6 0;
#X connect 6 0 9 0;
#X connect 9 0 7 0;
#X connect 9 0 12 0;
#X connect 9 0 8 0;
#X connect 11 0 1 0;
#X connect 11 0 22 0;
#X connect 11 1 20 0;
#X connect 11 1 22 1;
#X connect 11 2 21 0;
#X connect 11 2 22 2;
#X connect 11 4 2 0;
#X connect 12 0 13 0;
#X connect 13 0 15 0;
#X connect 15 0 16 0;
#X connect 16 0 14 0;
#X connect 17 0 18 0;
#X connect 18 0 0 0;
#X connect 22 0 25 0;
#X connect 25 0 23 0;
#X connect 25 0 24 0;
#X connect 26 0 5 0;
#X restore 69 481 pd dateseed;
#X obj 79 172 r playstop;
#X msg 79 90 vis 1 1;
#X obj 35 119 clone ys.agency 10;
#X obj 500 534 s dsp_on_bang;
#X obj 500 502 delay 100;
#X obj 216 576 writesf~ 2;
#X msg 305 540 open record.wav;
#X msg 303 482 start;
#X msg 308 508 stop;
#X connect 1 0 17 0;
#X connect 2 0 1 1;
#X connect 2 0 19 1;
#X connect 3 0 5 0;
#X connect 4 0 2 0;
#X connect 5 0 4 0;
#X connect 5 1 6 0;
#X connect 6 0 2 0;
#X connect 7 0 8 0;
#X connect 8 0 22 0;
#X connect 11 0 8 0;
#X connect 11 1 5 0;
#X connect 14 0 13 0;
#X connect 14 0 29 0;
#X connect 15 0 16 0;
#X connect 16 0 14 0;
#X connect 18 0 12 0;
#X connect 18 0 30 0;
#X connect 19 0 20 0;
#X connect 21 0 12 1;
#X connect 21 0 30 1;
#X connect 22 0 2 0;
#X connect 25 0 11 0;
#X connect 26 0 27 0;
#X connect 27 0 1 0;
#X connect 27 1 19 0;
#X connect 29 0 28 0;
#X connect 31 0 30 0;
#X connect 32 0 30 0;
#X connect 33 0 30 0;
#X restore 36 394 pd guts;
#X obj 43 86 hsl 128 15 0 12 0 0 empty location_view timing -2 8 1 12 #c4c4fc #c4fcfc #000000 0 1;
#X obj 44 141 hsl 128 15 0 1 0 1 fadeout fadeout_rcv fadeout -2 8 1 12 #fc0400 #fcfcfc #fcfcfc 6493 0;
#N canvas 457 465 947 359 presets 0;
#X obj 78 114 s randomchance_rcv;
#X msg 74 73 65;
#X obj 73 36 loadbang;
#X floatatom 264 80 5 0 0 0 - - - 0;
#X obj 265 27 loadbang;
#X msg 265 49 3000;
#X floatatom 336 71 5 0 0 0 - - - 0;
#X obj 336 106 s numsamples;
#X obj 234 112 s length_rcv;
#X msg 64 186 8;
#X obj 149 139 loadbang;
#X obj 66 236 t b f;
#X obj 59 279 s masterbang;
#X floatatom 65 213 5 0 0 0 - - - 0;
#X obj 118 201 r numsteps;
#X obj 243 225 s pitchrange_rcv;
#X obj 153 89 s rate_rcv;
#X floatatom 387 230 5 0 0 0 - - - 0;
#X obj 387 249 s reversechance_rcv;
#X msg 392 204 35;
#X obj 460 106 s numsamplestoplay;
#X msg 199 257 100;
#X obj 200 282 s numsteps;
#X msg 272 259 12;
#X obj 272 281 s numsteps_playing_rcv;
#X msg 244 198 0;
#X msg 455 72 16;
#X msg 155 61 0.25;
#X msg 336 49 124;
#X obj 444 14 bng 15 250 50 0 reset_all reset_all_rcv empty 17 7 0 10 #fcfcfc #000000 #000000;
#X obj 631 89 s fadeout_rcv;
#X msg 623 59 0.6;
#X connect 1 0 0 0;
#X connect 2 0 1 0;
#X connect 2 0 27 0;
#X connect 3 0 8 0;
#X connect 4 0 5 0;
#X connect 4 0 28 0;
#X connect 4 0 26 0;
#X connect 5 0 3 0;
#X connect 6 0 7 0;
#X connect 9 0 13 0;
#X connect 10 0 9 0;
#X connect 10 0 25 0;
#X connect 10 0 19 0;
#X connect 10 0 21 0;
#X connect 10 0 23 0;
#X connect 11 0 12 0;
#X connect 13 0 11 0;
#X connect 14 0 11 0;
#X connect 17 0 18 0;
#X connect 19 0 17 0;
#X connect 21 0 22 0;
#X connect 23 0 24 0;
#X connect 25 0 15 0;
#X connect 26 0 20 0;
#X connect 27 0 16 0;
#X connect 28 0 6 0;
#X connect 29 0 26 0;
#X connect 29 0 28 0;
#X connect 29 0 5 0;
#X connect 29 0 27 0;
#X connect 29 0 1 0;
#X connect 29 0 19 0;
#X connect 29 0 25 0;
#X connect 29 0 9 0;
#X connect 29 0 21 0;
#X connect 29 0 31 0;
#X connect 31 0 30 0;
#X restore 36 421 pd presets;
#N canvas 359 213 879 592 midi 0;
#X floatatom 57 160 5 0 0 0 - - - 0;
#X obj 74 206 s rate_rcv;
#X floatatom 285 213 5 0 0 0 - - - 0;
#X obj 287 241 s numsteps_playing_rcv;
#X floatatom 69 283 5 0 0 0 - - - 0;
#X obj 69 239 ctlin 50;
#X obj 69 261 / 127;
#X obj 58 307 s playstop_rcv;
#X obj 170 241 notein;
#X obj 197 269 / 100;
#X obj 76 19 ctlin 2;
#X obj 297 24 ctlin 4;
#X obj 89 179 + 0.01;
#X obj 287 177 / 4;
#X obj 70 513 noteout;
#X msg 71 487 60;
#X msg 105 487 100;
#X obj 81 452 bng 15 250 50 0 empty empty empty 17 7 0 10 #fcfcfc #000000 #000000;
#X obj 81 381 loadbang;
#X obj 85 417 delay 5000;
#X obj 379 29 ctlin 5;
#X obj 379 135 s randomiser_rcv;
#X obj 159 159 / 127;
#X obj 159 180 s fadeout_rcv;
#X obj 157 14 ctlin 3;
#X floatatom 39 17 5 0 0 0 - - - 0;
#X floatatom 215 15 5 0 0 0 - - - 0;
#X floatatom 26 238 5 0 0 0 - - - 0;
#X obj 169 114 + 2;
#X floatatom 261 23 5 0 0 0 - - - 0;
#X obj 281 142 + 9;
#X floatatom 440 29 5 0 0 0 - - - 0;
#X floatatom 217 116 5 0 0 0 - - - 0;
#X floatatom 101 46 5 0 0 0 - - - 0;
#X obj 206 379 print rate_midi;
#X obj 65 66 / 127;
#X floatatom 434 75 5 0 0 0 - - - 0;
#X obj 394 86 + 1;
#X connect 0 0 1 0;
#X connect 0 0 34 0;
#X connect 2 0 3 0;
#X connect 4 0 7 0;
#X connect 5 0 6 0;
#X connect 6 0 4 0;
#X connect 8 1 9 0;
#X connect 9 0 7 0;
#X connect 10 0 33 0;
#X connect 10 0 35 0;
#X connect 11 0 30 0;
#X connect 12 0 1 0;
#X connect 13 0 2 0;
#X connect 15 0 14 0;
#X connect 16 0 14 1;
#X connect 17 0 16 0;
#X connect 17 0 15 0;
#X connect 18 0 19 0;
#X connect 19 0 17 0;
#X connect 20 0 36 0;
#X connect 22 0 23 0;
#X connect 24 0 28 0;
#X connect 24 0 32 0;
#X connect 26 0 28 0;
#X connect 27 0 6 0;
#X connect 28 0 22 0;
#X connect 29 0 30 0;
#X connect 30 0 13 0;
#X connect 31 0 21 0;
#X connect 35 0 0 0;
#X connect 36 0 37 0;
#X connect 37 0 21 0;
#X restore 36 445 pd midi;
#X msg 39 32 today is 23/6/2025 and today will never happen again;
#X obj 39 9 r title;
#X msg 345 362 audio-properties;
#X obj 345 400 s pd;
#X msg 216 366 midi-properties;
#X obj 44 296 hsl 128 15 0 1 0 1 volume_rand volume_rand_rcv volume_randomise -2 8 1 12 #fc0400 #9c9c9c #fcfcfc 10846 1;
#X obj 39 473 bng 15 250 50 0 reset_all_rcv empty reset_all 17 7 0 10 #fcfcfc #000000 #000000;
#X obj 44 181 hsl 128 15 0 1023 0 1 randomiser randomiser_rcv randomiser -2 8 1 12 #fc0400 #9c9c9c #fcfcfc 447 1;
#N canvas 410 107 951 765 serial 1;
#X obj 51 529 s rate_rcv;
#X floatatom 262 536 5 0 0 0 - - - 0;
#X obj 264 564 s numsteps_playing_rcv;
#X obj 368 381 s playstop_rcv;
#X obj 356 458 s randomiser_rcv;
#X obj 136 503 s fadeout_rcv;
#X obj 17 396 + 2;
#X obj 146 437 + 2;
#X floatatom 417 418 5 0 0 0 - - - 0;
#X obj 44 223 list prepend;
#X obj 44 245 list trim;
#X msg 28 71 devices;
#X msg 157 90 close;
#X msg 100 68 open 2;
#X floatatom 52 315 5 0 0 0 - - - 0;
#X floatatom 107 321 5 0 0 0 - - - 0;
#X obj 33 33 loadbang;
#X msg 101 40 open 1;
#X floatatom 162 315 5 0 0 0 - - - 0;
#X floatatom 215 317 5 0 0 0 - - - 0;
#X obj 53 294 route analog0 analog1 analog2 analog3 digital0;
#X floatatom 272 319 5 0 0 0 - - - 0;
#X msg 223 135 72;
#X msg 253 135 76;
#X obj 223 112 sel 1 0;
#X obj 246 79 tgl 15 0 empty empty empty 17 7 0 10 #fcfcfc #000000 #000000 0 1;
#X obj 44 201 serial_print any;
#X obj 374 302 change;
#X obj 374 323 sel 0;
#X obj 371 348 tgl 15 0 empty empty empty 17 7 0 10 #fcfcfc #000000 #000000 0 1;
#X obj 136 482 / 1023;
#X obj 259 511 + 2;
#X obj 52 466 / 1024;
#X obj 259 477 / 20;
#X obj 246 25 r dsp_on_bang;
#X msg 248 50 1;
#X obj 313 92 r loop_light;
#X obj 76 383 print;
#X obj 44 179 comport 0 9600;
#X msg 111 102 open 3;
#X obj 157 388 print a0;
#X obj 224 388 print a1;
#X obj 472 387 print playstop;
#X connect 1 0 2 0;
#X connect 6 0 32 0;
#X connect 7 0 30 0;
#X connect 8 0 4 0;
#X connect 9 0 10 0;
#X connect 10 0 20 0;
#X connect 11 0 38 0;
#X connect 12 0 38 0;
#X connect 13 0 38 0;
#X connect 14 0 32 0;
#X connect 15 0 7 0;
#X connect 15 0 41 0;
#X connect 16 0 11 0;
#X connect 17 0 38 0;
#X connect 18 0 33 0;
#X connect 19 0 4 0;
#X connect 20 0 14 0;
#X connect 20 1 15 0;
#X connect 20 2 18 0;
#X connect 20 3 19 0;
#X connect 20 4 21 0;
#X connect 21 0 27 0;
#X connect 22 0 38 0;
#X connect 23 0 38 0;
#X connect 24 0 22 0;
#X connect 24 1 23 0;
#X connect 25 0 24 0;
#X connect 26 0 9 0;
#X connect 26 1 9 1;
#X connect 27 0 28 0;
#X connect 28 0 29 0;
#X connect 29 0 3 0;
#X connect 29 0 42 0;
#X connect 30 0 5 0;
#X connect 31 0 1 0;
#X connect 32 0 0 0;
#X connect 33 0 31 0;
#X connect 34 0 35 0;
#X connect 35 0 25 0;
#X connect 36 0 25 0;
#X connect 38 0 26 0;
#X connect 39 0 38 0;
#X restore 89 445 pd serial;
#N canvas 636 137 768 371 randomslopes 0;
#X obj 484 461 s pitchrange_rcv;
#X obj 109 461 s randomchance_rcv;
#X obj 351 461 s reversechance_rcv;
#X obj 230 462 s volume_rand_rcv;
#X obj 50 43 hsl 128 15 0 1023 0 0 empty empty empty -2 -8 0 10 #fcfcfc #000000 #000000 0 1;
#X obj 94 5 r randomiser;
#X obj 52 211 line;
#X obj 106 402 ys.randomslopes 1;
#X obj 225 401 ys.randomslopes 2;
#X obj 348 401 ys.randomslopes 3;
#X obj 481 408 ys.randomslopes 4;
#X floatatom 44 9 5 0 0 0 - - - 0;
#X obj 52 251 ys.random_tables 1;
#X obj 173 249 ys.random_tables 2;
#X obj 296 249 ys.random_tables 3;
#X obj 412 247 ys.random_tables 4;
#X text 132 361 old system (uses 0-44100);
#X obj 435 336 s pitchrange_rcv;
#X obj 60 336 s randomchance_rcv;
#X obj 302 336 s reversechance_rcv;
#X obj 181 337 s volume_rand_rcv;
#X floatatom 109 210 21 0 0 0 - - - 0;
#X obj 52 148 / 1023;
#X text 102 145 comment;
#X msg 52 190 \$1 5;
#X obj 48 106 + 1;
#X floatatom 125 121 5 0 0 0 - - - 0;
#X connect 4 0 25 0;
#X connect 5 0 4 0;
#X connect 6 0 12 0;
#X connect 6 0 21 0;
#X connect 6 0 13 0;
#X connect 6 0 14 0;
#X connect 6 0 15 0;
#X connect 7 0 1 0;
#X connect 8 0 3 0;
#X connect 9 0 2 0;
#X connect 10 0 0 0;
#X connect 11 0 4 0;
#X connect 12 0 18 0;
#X connect 13 0 20 0;
#X connect 14 0 19 0;
#X connect 15 0 17 0;
#X connect 22 0 24 0;
#X connect 24 0 6 0;
#X connect 25 0 22 0;
#X connect 25 0 26 0;
#X restore 154 446 pd randomslopes;
#X connect 12 0 11 0;
#X connect 13 0 14 0;
#X connect 15 0 14 0;
