#N canvas 141 185 463 559 10;
#X obj 44 162 hsl 128 15 2 50 0 1 numsteps_playing numsteps_playing_rcv
number_of_steps -2 8 1 12 -258113 -162280 -262144 2646 1;
#X obj 44 258 hsl 128 15 0 1 0 1 randomchance randomchance_rcv chance_of_playback
-2 8 1 12 -258113 -162280 -262144 3780 1;
#X obj 44 277 hsl 128 15 0 1 0 1 pitchrange pitchrange_rcv pitch_range
-2 8 1 12 -258113 -162280 -262144 7272 1;
#X obj 41 55 tgl 15 0 playstop playstop_rcv Play_Stop 17 7 0 10 -262144
-1 -1 0 1;
#X obj 44 121 hsl 128 15 0 0.5 0 1 rate rate_rcv playback_rate -2 8
1 12 -258113 -162280 -262144 496 1;
#X obj 44 315 hsl 128 15 0 1 0 1 reversechance reversechance_rcv chance_of_reverse
-2 8 1 12 -258113 -162280 -262144 4052 1;
#N canvas 688 25 628 693 guts 0;
#X obj 28 25 ys.audiomidisetup;
#X obj 46 343 *~;
#X obj 74 314 line~;
#X obj 64 231 r play;
#X msg 71 284 1 20;
#X obj 63 259 t b b;
#X msg 111 284 0;
#X obj 135 231 r stop;
#X obj 165 255 t b b;
#X text 171 118 argument is number of samples to play;
#X obj 69 434 sample_selector;
#X obj 79 194 sel 0 1;
#X obj 131 564 dac~;
#X msg 408 495 \; pd dsp 1;
#X obj 408 469 bng 15 250 50 0 empty empty empty 17 7 0 10 -262144
-1 -1;
#X obj 408 413 loadbang;
#X obj 408 441 delay 1000;
#X obj 50 391 throw~ audiooutL;
#X obj 58 515 catch~ audiooutL;
#X obj 172 345 *~;
#X obj 176 393 throw~ audiooutR;
#X obj 188 513 catch~ audiooutR;
#X msg 146 277 0 1000;
#N canvas 941 269 681 616 clocking 0;
#X obj 52 177 phasor~ 0.1;
#X obj 52 228 ys.snapshot 10;
#X floatatom 52 250 5 0 0 0 - - -;
#X floatatom 52 158 5 0 0 0 - - -;
#X obj 76 589 s mastercounter;
#X obj 35 57 r rate;
#X obj 126 151 r playstop;
#X obj 497 249 ys.snapshot 10;
#X floatatom 497 271 5 0 0 0 - - -;
#X obj 498 328 s location_view;
#X obj 500 302 spigot;
#X obj 540 272 r playstop;
#X obj 112 22 r numsteps_playing;
#X obj 108 87 t b f;
#X obj 112 44 / 5;
#X floatatom 112 66 5 0 0 0 - - -;
#X obj 109 112 /;
#X obj 84 564 spigot;
#X obj 124 534 r playstop;
#X obj 238 163 r numsteps_playing;
#X obj 173 179 r numsteps;
#X obj 51 206 *~;
#X obj 157 262 r numsteps_playing;
#X obj 82 481 %;
#X floatatom 173 200 5 0 0 0 - - -;
#X obj 115 503 t b;
#X obj 192 380 samphold~;
#X obj 169 343 sig~;
#X obj 197 419 ys.snapshot 10;
#X floatatom 197 441 5 0 0 0 - - -;
#X obj 202 361 wrap~;
#X obj 202 340 *~ 16;
#X floatatom 204 578 5 0 0 0 - - -;
#X connect 0 0 7 0;
#X connect 0 0 21 0;
#X connect 0 0 31 0;
#X connect 1 0 2 0;
#X connect 2 0 23 0;
#X connect 3 0 0 0;
#X connect 5 0 3 0;
#X connect 6 0 0 1;
#X connect 7 0 8 0;
#X connect 8 0 10 0;
#X connect 10 0 9 0;
#X connect 11 0 10 1;
#X connect 12 0 14 0;
#X connect 13 0 16 0;
#X connect 13 1 16 1;
#X connect 14 0 15 0;
#X connect 15 0 13 0;
#X connect 17 0 4 0;
#X connect 17 0 32 0;
#X connect 18 0 17 1;
#X connect 20 0 21 1;
#X connect 20 0 24 0;
#X connect 21 0 1 0;
#X connect 22 0 27 0;
#X connect 23 0 17 0;
#X connect 23 0 25 0;
#X connect 26 0 28 0;
#X connect 27 0 26 0;
#X connect 28 0 29 0;
#X connect 29 0 23 1;
#X connect 30 0 26 1;
#X connect 31 0 30 0;
#X restore 69 456 pd clocking;
#N canvas 939 302 707 446 dateseed 0;
#X msg 43 63 bang;
#X floatatom 39 128 0 0 0 0 - - -;
#X floatatom 100 128 0 0 0 0 - - -;
#X obj 42 14 loadbang;
#X obj 39 158 * 1000;
#X obj 41 191 +;
#X floatatom 40 219 15 0 0 0 - - -;
#X obj 66 301 s seed;
#X obj 117 300 print seed;
#X obj 40 253 t f b, f 9;
#X obj 133 93 zexy;
#X obj 43 92 date, f 11;
#X obj 40 325 change;
#X obj 40 347 t b;
#X obj 39 414 s masterbang;
#X msg 40 369 5;
#X obj 40 391 until;
#X obj 163 32 r playstop;
#X obj 164 57 sel 1;
#X obj 207 147 s year;
#X obj 273 132 s month;
#X obj 308 105 s day;
#X obj 307 277 pack 0 0 0;
#X obj 314 351 print;
#X obj 376 373 s title;
#X msg 314 329 set today is \$3/\$2/\$1 and today will never happen
again;
#X connect 0 0 11 0;
#X connect 1 0 4 0;
#X connect 1 0 19 0;
#X connect 2 0 5 1;
#X connect 3 0 0 0;
#X connect 4 0 5 0;
#X connect 5 0 6 0;
#X connect 6 0 9 0;
#X connect 9 0 7 0;
#X connect 9 0 12 0;
#X connect 9 0 8 0;
#X connect 11 0 1 0;
#X connect 11 0 22 0;
#X connect 11 1 20 0;
#X connect 11 1 22 1;
#X connect 11 2 21 0;
#X connect 11 2 22 2;
#X connect 11 4 2 0;
#X connect 12 0 13 0;
#X connect 13 0 15 0;
#X connect 15 0 16 0;
#X connect 16 0 14 0;
#X connect 17 0 18 0;
#X connect 18 0 0 0;
#X connect 22 0 25 0;
#X connect 25 0 23 0;
#X connect 25 0 24 0;
#X restore 69 481 pd dateseed;
#X obj 79 172 r playstop;
#X msg 79 90 vis 1 1;
#X obj 35 119 clone ys.agency 10;
#X connect 1 0 17 0;
#X connect 2 0 1 1;
#X connect 2 0 19 1;
#X connect 3 0 5 0;
#X connect 4 0 2 0;
#X connect 5 0 4 0;
#X connect 5 1 6 0;
#X connect 6 0 2 0;
#X connect 7 0 8 0;
#X connect 8 0 22 0;
#X connect 11 0 8 0;
#X connect 11 1 5 0;
#X connect 14 0 13 0;
#X connect 15 0 16 0;
#X connect 16 0 14 0;
#X connect 18 0 12 0;
#X connect 19 0 20 0;
#X connect 21 0 12 1;
#X connect 22 0 2 0;
#X connect 25 0 11 0;
#X connect 26 0 27 0;
#X connect 27 0 1 0;
#X connect 27 1 19 0;
#X restore 36 394 pd guts;
#X obj 43 86 hsl 128 15 0 1 0 0 empty location_view timing -2 8 1 12
-203904 -204800 -1 0 1;
#X obj 44 141 hsl 128 15 0 1 0 1 fadeout fadeout_rcv fadeout -2 8 1
12 -258113 -262144 -262144 500 0;
#N canvas 532 466 947 359 presets 0;
#X obj 78 114 s randomchance_rcv;
#X msg 74 73 65;
#X obj 73 36 loadbang;
#X floatatom 264 80 5 0 0 0 - - -;
#X obj 265 27 loadbang;
#X msg 265 49 3000;
#X floatatom 336 71 5 0 0 0 - - -;
#X obj 336 106 s numsamples;
#X obj 234 112 s length_rcv;
#X msg 64 186 8;
#X obj 149 139 loadbang;
#X obj 66 236 t b f;
#X obj 59 279 s masterbang;
#X floatatom 65 213 5 0 0 0 - - -;
#X obj 118 201 r numsteps;
#X obj 243 225 s pitchrange_rcv;
#X obj 153 89 s rate_rcv;
#X floatatom 387 230 5 0 0 0 - - -;
#X obj 387 249 s reversechance_rcv;
#X msg 392 204 35;
#X obj 460 106 s numsamplestoplay;
#X msg 199 257 100;
#X obj 200 282 s numsteps;
#X msg 272 259 12;
#X obj 272 281 s numsteps_playing_rcv;
#X msg 244 198 0;
#X msg 455 72 16;
#X msg 155 61 0.25;
#X msg 336 49 124;
#X obj 444 14 bng 15 250 50 0 reset_all reset_all_rcv empty 17 7 0
10 -262144 -1 -1;
#X obj 631 89 s fadeout_rcv;
#X msg 623 59 0.6;
#X connect 1 0 0 0;
#X connect 2 0 1 0;
#X connect 2 0 27 0;
#X connect 3 0 8 0;
#X connect 4 0 5 0;
#X connect 4 0 28 0;
#X connect 4 0 26 0;
#X connect 5 0 3 0;
#X connect 6 0 7 0;
#X connect 9 0 13 0;
#X connect 10 0 9 0;
#X connect 10 0 25 0;
#X connect 10 0 19 0;
#X connect 10 0 21 0;
#X connect 10 0 23 0;
#X connect 11 0 12 0;
#X connect 13 0 11 0;
#X connect 14 0 11 0;
#X connect 17 0 18 0;
#X connect 19 0 17 0;
#X connect 21 0 22 0;
#X connect 23 0 24 0;
#X connect 25 0 15 0;
#X connect 26 0 20 0;
#X connect 27 0 16 0;
#X connect 28 0 6 0;
#X connect 29 0 26 0;
#X connect 29 0 28 0;
#X connect 29 0 5 0;
#X connect 29 0 27 0;
#X connect 29 0 1 0;
#X connect 29 0 19 0;
#X connect 29 0 25 0;
#X connect 29 0 9 0;
#X connect 29 0 21 0;
#X connect 29 0 31 0;
#X connect 31 0 30 0;
#X restore 36 421 pd presets;
#N canvas 352 69 1137 758 midi 1;
#X floatatom 57 94 5 0 0 0 - - -;
#X obj 74 140 s rate_rcv;
#X obj 670 419 s pitchrange_rcv;
#X floatatom 285 147 5 0 0 0 - - -;
#X obj 287 175 s numsteps_playing_rcv;
#X obj 297 421 s randomchance_rcv;
#X obj 539 421 s reversechance_rcv;
#X floatatom 69 217 5 0 0 0 - - -;
#X obj 69 173 ctlin 50;
#X obj 69 195 / 127;
#X obj 58 241 s playstop_rcv;
#X obj 170 175 notein;
#X obj 197 203 / 100;
#X obj 718 345 + 2;
#X obj 76 19 ctlin 2;
#X obj 297 24 ctlin 4;
#X obj 89 113 + 0.01;
#X obj 287 111 / 4;
#X obj 201 596 noteout;
#X msg 202 570 60;
#X msg 236 570 100;
#X obj 212 535 bng 15 250 50 0 empty empty empty 17 7 0 10 -262144
-1 -1;
#X obj 212 464 loadbang;
#X obj 216 500 delay 5000;
#X obj 418 422 s volume_rand_rcv;
#X obj 540 67 hsl 128 15 0 127 0 0 empty empty empty -2 -8 0 10 -262144
-1 -1 3500 1;
#X obj 717 178 / 1.27;
#X floatatom 717 157 5 0 0 0 - - -;
#X obj 717 199 + 3;
#X floatatom 717 242 5 0 0 0 - - -;
#X obj 715 265 * 100;
#X obj 817 221 ys.randomarray;
#X obj 817 178 / 1.27;
#X floatatom 817 157 5 0 0 0 - - -;
#X floatatom 817 242 5 0 0 0 - - -;
#X obj 817 199 + 8;
#X obj 914 212 ys.randomarray;
#X obj 914 169 / 1.27;
#X floatatom 918 143 5 0 0 0 - - -;
#X floatatom 914 233 5 0 0 0 - - -;
#X obj 914 190 + 12;
#X obj 931 250 * 100;
#X obj 1091 212 ys.randomarray;
#X obj 1091 169 / 1.27;
#X floatatom 1095 143 5 0 0 0 - - -;
#X floatatom 1091 233 5 0 0 0 - - -;
#X obj 1091 190 + 8;
#X obj 718 303 pack 0 0;
#X obj 718 324 line;
#X obj 826 311 pack 0 0;
#X obj 826 332 line;
#X obj 974 297 pack 0 0;
#X obj 974 318 line;
#X obj 1082 305 pack 0 0;
#X obj 1082 326 line;
#X obj 379 29 ctlin 5;
#X obj 584 30 r randomiser;
#X obj 74 73 / 256;
#X obj 379 50 s randomiser_rcv;
#X obj 159 93 / 127;
#X obj 159 114 s fadeout_rcv;
#X obj 157 14 ctlin 3;
#X obj 526 88 / 127;
#X obj 526 109 * 44100;
#X msg 526 130 \$1 50;
#X obj 526 151 line;
#X obj 717 221 ys.randomarray 10;
#X obj 294 362 ys.randomslopes 1;
#X obj 413 361 ys.randomslopes 2;
#X obj 536 361 ys.randomslopes 3;
#X obj 669 368 ys.randomslopes 4;
#X floatatom 39 17 5 0 0 0 - - -;
#X floatatom 215 15 5 0 0 0 - - -;
#X floatatom 26 172 5 0 0 0 - - -;
#X floatatom 534 34 5 0 0 0 - - -;
#X obj 65 51 + 2;
#X obj 169 48 + 2;
#X floatatom 261 23 5 0 0 0 - - -;
#X obj 281 76 + 9;
#X floatatom 443 19 5 0 0 0 - - -;
#X obj 28 319 print rate;
#X obj 133 327 print fade;
#X obj 215 319 print steps;
#X obj 293 311 print random;
#X connect 0 0 1 0;
#X connect 0 0 80 0;
#X connect 3 0 4 0;
#X connect 3 0 82 0;
#X connect 7 0 10 0;
#X connect 8 0 9 0;
#X connect 9 0 7 0;
#X connect 11 1 12 0;
#X connect 12 0 10 0;
#X connect 14 0 75 0;
#X connect 15 0 78 0;
#X connect 16 0 1 0;
#X connect 17 0 3 0;
#X connect 19 0 18 0;
#X connect 20 0 18 1;
#X connect 21 0 20 0;
#X connect 21 0 19 0;
#X connect 22 0 23 0;
#X connect 23 0 21 0;
#X connect 25 0 62 0;
#X connect 26 0 28 0;
#X connect 27 0 26 0;
#X connect 28 0 66 0;
#X connect 29 0 30 0;
#X connect 30 0 47 0;
#X connect 31 0 34 0;
#X connect 32 0 35 0;
#X connect 33 0 32 0;
#X connect 34 0 49 0;
#X connect 35 0 31 0;
#X connect 36 0 39 0;
#X connect 37 0 40 0;
#X connect 38 0 37 0;
#X connect 39 0 41 0;
#X connect 40 0 36 0;
#X connect 41 0 51 0;
#X connect 42 0 45 0;
#X connect 43 0 46 0;
#X connect 44 0 43 0;
#X connect 45 0 53 0;
#X connect 46 0 42 0;
#X connect 47 0 48 0;
#X connect 48 0 13 0;
#X connect 49 0 50 0;
#X connect 51 0 52 0;
#X connect 53 0 54 0;
#X connect 55 0 58 0;
#X connect 55 0 83 0;
#X connect 56 0 25 0;
#X connect 57 0 0 0;
#X connect 59 0 60 0;
#X connect 59 0 81 0;
#X connect 61 0 76 0;
#X connect 62 0 63 0;
#X connect 63 0 64 0;
#X connect 64 0 65 0;
#X connect 65 0 67 0;
#X connect 65 0 68 0;
#X connect 65 0 69 0;
#X connect 65 0 70 0;
#X connect 66 0 29 0;
#X connect 67 0 5 0;
#X connect 68 0 24 0;
#X connect 69 0 6 0;
#X connect 70 0 2 0;
#X connect 71 0 75 0;
#X connect 72 0 76 0;
#X connect 73 0 9 0;
#X connect 74 0 25 0;
#X connect 75 0 57 0;
#X connect 76 0 59 0;
#X connect 77 0 78 0;
#X connect 78 0 17 0;
#X connect 79 0 58 0;
#X restore 36 445 pd midi;
#X msg 39 32 today is 23/5/2019 and today will never happen again;
#X obj 39 9 r title;
#X msg 345 362 audio-properties;
#X obj 345 400 s pd;
#X msg 216 369 midi-properties;
#X obj 44 296 hsl 128 15 0 1 0 1 volume_rand volume_rand_rcv volume_randomise
-2 8 1 12 -258113 -162280 -262144 4852 1;
#X obj 38 470 bng 15 250 50 0 reset_all_rcv empty reset_all 17 7 0
10 -262144 -1 -1;
#X obj 44 181 hsl 128 15 0 127 0 1 randomiser randomiser_rcv randomiser
-2 8 1 12 -258113 -162280 -262144 3500 1;
#X connect 12 0 11 0;
#X connect 13 0 14 0;
#X connect 15 0 14 0;
