#N canvas 858 399 211 483 10;
#X obj 44 188 hsl 128 15 1 100 0 0 numsteps_playing numsteps_playing_rcv
number_of_steps -2 8 1 12 -258113 -162280 -262144 1411 1;
#X obj 44 266 hsl 128 15 0 100 0 0 randomchance randomchance_rcv chance_of_playback
-2 8 1 12 -258113 -162280 -262144 8255 1;
#X obj 44 162 hsl 128 15 0 1 0 0 pitchrange pitchrange_rcv pitch_range
-2 8 1 12 -258113 -162280 -262144 0 1;
#X obj 41 55 tgl 15 0 playstop playstop_rcv Play_Stop 17 7 0 10 -262144
-1 -1 1 1;
#X obj 44 136 hsl 128 15 0 6 0 0 rate rate_rcv playback_rate -2 8 1
12 -258113 -162280 -262144 529 1;
#X obj 44 240 hsl 128 15 0 100 0 0 reversechance reversechance_rcv
chance_of_reverse -2 8 1 12 -258113 -162280 -262144 4445 1;
#N canvas 560 279 628 693 guts 0;
#X obj 28 25 ys.audiomidisetup;
#X obj 46 343 *~;
#X obj 74 314 line~;
#X obj 64 231 r play;
#X msg 71 284 1 20;
#X obj 63 259 t b b;
#X msg 111 284 0;
#X obj 135 231 r stop;
#X obj 165 255 t b b;
#X text 171 118 argument is number of samples to play;
#X obj 69 434 sample_selector;
#X obj 50 364 *~ 0.7;
#X obj 79 194 sel 0 1;
#X obj 131 564 dac~;
#X msg 408 495 \; pd dsp 1;
#X obj 408 469 bng 15 250 50 0 empty empty empty 17 7 0 10 -262144
-1 -1;
#X obj 433 383 loadbang;
#X obj 433 411 delay 1000;
#X obj 50 391 throw~ audiooutL;
#X obj 58 515 catch~ audiooutL;
#X obj 172 345 *~;
#X obj 176 366 *~ 0.7;
#X obj 176 393 throw~ audiooutR;
#X obj 188 513 catch~ audiooutR;
#X msg 146 277 0 1000;
#N canvas 0 23 681 616 clocking 0;
#X obj 52 177 phasor~ 0.1;
#X obj 52 228 ys.snapshot 10;
#X floatatom 52 250 5 0 0 0 - - -, f 5;
#X floatatom 52 158 5 0 0 0 - - -, f 5;
#X obj 39 411 s mastercounter;
#X obj 52 95 r rate;
#X obj 126 151 r playstop;
#X obj 189 225 ys.snapshot 10;
#X floatatom 189 247 5 0 0 0 - - -, f 5;
#X obj 190 304 s location_view;
#X obj 192 278 spigot;
#X obj 232 248 r playstop;
#X obj 112 22 r numsteps_playing;
#X floatatom 72 300 5 0 0 0 - - -, f 5;
#X obj 68 277 r offset;
#X obj 54 352 %;
#X obj 112 327 r numsteps;
#X obj 52 325 + 0;
#X obj 108 87 t b f;
#X floatatom 52 139 5 0 0 0 - - -, f 5;
#X obj 112 44 / 5;
#X floatatom 112 66 5 0 0 0 - - -, f 5;
#X obj 52 117 /;
#X obj 47 386 spigot;
#X obj 87 356 r playstop;
#X obj 52 206 *~;
#X obj 136 178 r numsteps_playing;
#X connect 0 0 7 0;
#X connect 0 0 25 0;
#X connect 1 0 2 0;
#X connect 2 0 17 0;
#X connect 3 0 0 0;
#X connect 5 0 22 0;
#X connect 6 0 0 1;
#X connect 7 0 8 0;
#X connect 8 0 10 0;
#X connect 10 0 9 0;
#X connect 11 0 10 1;
#X connect 12 0 20 0;
#X connect 13 0 17 1;
#X connect 14 0 13 0;
#X connect 15 0 23 0;
#X connect 16 0 15 1;
#X connect 17 0 15 0;
#X connect 18 0 22 0;
#X connect 18 1 22 1;
#X connect 19 0 3 0;
#X connect 20 0 21 0;
#X connect 21 0 18 0;
#X connect 22 0 19 0;
#X connect 23 0 4 0;
#X connect 24 0 23 1;
#X connect 25 0 1 0;
#X connect 26 0 25 1;
#X restore 69 456 pd clocking;
#N canvas 939 302 529 427 dateseed 0;
#X msg 43 63 bang;
#X floatatom 39 128 0 0 0 0 - - -;
#X floatatom 100 128 0 0 0 0 - - -;
#X obj 42 14 loadbang;
#X obj 39 158 * 1000;
#X obj 41 191 +;
#X floatatom 40 219 15 0 0 0 - - -, f 15;
#X obj 66 301 s seed;
#X obj 117 300 print seed;
#X obj 40 253 t f b, f 9;
#X obj 133 93 zexy;
#X obj 43 92 date, f 11;
#X obj 40 325 change;
#X obj 40 347 t b;
#X obj 39 414 s masterbang;
#X msg 40 369 5;
#X obj 40 391 until;
#X obj 163 32 r playstop;
#X obj 164 57 sel 1;
#X connect 0 0 11 0;
#X connect 1 0 4 0;
#X connect 2 0 5 1;
#X connect 3 0 0 0;
#X connect 4 0 5 0;
#X connect 5 0 6 0;
#X connect 6 0 9 0;
#X connect 9 0 7 0;
#X connect 9 0 12 0;
#X connect 9 0 8 0;
#X connect 11 0 1 0;
#X connect 11 4 2 0;
#X connect 12 0 13 0;
#X connect 13 0 15 0;
#X connect 15 0 16 0;
#X connect 16 0 14 0;
#X connect 17 0 18 0;
#X connect 18 0 0 0;
#X restore 69 481 pd dateseed;
#X obj 79 172 r playstop;
#X obj 35 118 clone ys.agency 3;
#X obj 404 192 r subpatch;
#X connect 1 0 11 0;
#X connect 2 0 1 1;
#X connect 2 0 20 1;
#X connect 3 0 5 0;
#X connect 4 0 2 0;
#X connect 5 0 4 0;
#X connect 5 1 6 0;
#X connect 6 0 2 0;
#X connect 7 0 8 0;
#X connect 8 0 24 0;
#X connect 11 0 18 0;
#X connect 12 0 8 0;
#X connect 12 1 5 0;
#X connect 15 0 14 0;
#X connect 16 0 17 0;
#X connect 16 0 15 0;
#X connect 17 0 15 0;
#X connect 19 0 13 0;
#X connect 20 0 21 0;
#X connect 21 0 22 0;
#X connect 23 0 13 1;
#X connect 24 0 2 0;
#X connect 27 0 12 0;
#X connect 28 0 1 0;
#X connect 28 1 20 0;
#X restore 36 395 pd guts;
#X obj 43 86 hsl 128 15 0 1 0 0 empty location_view timing -2 8 1 12
-203904 -204800 -1 6560 1;
#X obj 44 214 hsl 128 15 0 500 0 0 fadeout fadeout_rcv fadeout -2 8
1 12 -258113 -162280 -262144 0 1;
#N canvas 532 466 947 359 presets 0;
#X obj 78 114 s randomchance_rcv;
#X msg 74 73 65;
#X obj 73 36 loadbang;
#X floatatom 264 80 5 0 0 0 - - -, f 5;
#X obj 265 27 loadbang;
#X msg 265 49 3000;
#X floatatom 336 71 5 0 0 0 - - -, f 5;
#X obj 336 106 s numsamples;
#X obj 234 112 s length_rcv;
#X msg 64 186 8;
#X obj 149 139 loadbang;
#X obj 66 236 t b f;
#X obj 59 279 s masterbang;
#X floatatom 65 213 5 0 0 0 - - -, f 5;
#X obj 118 201 r numsteps;
#X obj 243 225 s pitchrange_rcv;
#X obj 153 89 s rate_rcv;
#X floatatom 387 230 5 0 0 0 - - -, f 5;
#X obj 387 249 s reversechance_rcv;
#X msg 392 204 35;
#X obj 460 106 s numsamplestoplay;
#X msg 199 257 100;
#X obj 200 282 s numsteps;
#X msg 272 259 12;
#X obj 272 281 s numsteps_playing_rcv;
#X msg 244 198 0;
#X obj 631 89 s playstop_rcv;
#X msg 623 59 1;
#X msg 336 49 181;
#X msg 455 72 16;
#X msg 155 61 0.25;
#X connect 1 0 0 0;
#X connect 2 0 1 0;
#X connect 2 0 30 0;
#X connect 3 0 8 0;
#X connect 4 0 5 0;
#X connect 4 0 28 0;
#X connect 4 0 29 0;
#X connect 4 0 27 0;
#X connect 5 0 3 0;
#X connect 6 0 7 0;
#X connect 9 0 13 0;
#X connect 10 0 9 0;
#X connect 10 0 25 0;
#X connect 10 0 19 0;
#X connect 10 0 21 0;
#X connect 10 0 23 0;
#X connect 11 0 12 0;
#X connect 13 0 11 0;
#X connect 14 0 11 0;
#X connect 17 0 18 0;
#X connect 19 0 17 0;
#X connect 21 0 22 0;
#X connect 23 0 24 0;
#X connect 25 0 15 0;
#X connect 27 0 26 0;
#X connect 28 0 6 0;
#X connect 29 0 20 0;
#X connect 30 0 16 0;
#X restore 36 421 pd presets;
#N canvas 956 309 510 419 midi 0;
#X obj 76 45 ctlin 2;
#X obj 76 67 / 42;
#X floatatom 76 89 5 0 0 0 - - -, f 5;
#X obj 76 108 s rate_rcv;
#X floatatom 165 88 5 0 0 0 - - -, f 5;
#X obj 166 45 ctlin 3;
#X obj 165 66 / 127;
#X obj 164 107 s pitchrange_rcv;
#X floatatom 294 97 5 0 0 0 - - -, f 5;
#X obj 296 125 s numsteps_playing_rcv;
#X obj 296 45 / 1.27;
#X obj 297 24 ctlin 4;
#X floatatom 76 193 5 0 0 0 - - -, f 5;
#X floatatom 165 192 5 0 0 0 - - -, f 5;
#X floatatom 316 193 5 0 0 0 - - -, f 5;
#X obj 316 171 / 1.27;
#X obj 317 245 s randomchance_rcv;
#X obj 317 150 ctlin 7;
#X obj 166 148 ctlin 6;
#X obj 76 149 ctlin 5;
#X obj 164 211 s reversechance_rcv;
#X obj 165 170 / 1.27;
#X obj 76 171 * 3;
#X obj 76 212 s fadeout_rcv;
#X floatatom 79 292 5 0 0 0 - - -, f 5;
#X obj 79 248 ctlin 50;
#X obj 79 270 / 127;
#X obj 68 316 s playstop_rcv;
#X obj 180 250 notein;
#X obj 207 278 / 100;
#X floatatom 309 320 5 0 0 0 - - -, f 5;
#X obj 309 298 / 1.27;
#X obj 310 278 ctlin 8;
#X obj 307 339 s offset_rcv;
#X obj 296 67 + 0.15;
#X obj 319 223 + 2;
#X connect 0 0 1 0;
#X connect 1 0 2 0;
#X connect 2 0 3 0;
#X connect 4 0 7 0;
#X connect 5 0 6 0;
#X connect 6 0 4 0;
#X connect 8 0 9 0;
#X connect 10 0 34 0;
#X connect 11 0 10 0;
#X connect 12 0 23 0;
#X connect 13 0 20 0;
#X connect 14 0 35 0;
#X connect 15 0 14 0;
#X connect 17 0 15 0;
#X connect 18 0 21 0;
#X connect 19 0 22 0;
#X connect 21 0 13 0;
#X connect 22 0 12 0;
#X connect 24 0 27 0;
#X connect 25 0 26 0;
#X connect 26 0 24 0;
#X connect 28 1 29 0;
#X connect 29 0 27 0;
#X connect 30 0 33 0;
#X connect 31 0 30 0;
#X connect 32 0 31 0;
#X connect 34 0 8 0;
#X connect 35 0 16 0;
#X restore 36 445 pd midi;
#X obj 44 292 hsl 128 15 0 100 0 0 offset offset_rcv offset -2 8 1
12 -258113 -162280 -262144 0 1;
