#N canvas 775 234 699 522 10;
#X obj 121 112 pd~, f 11;
#X obj 165 162 dac~;
#X msg 141 83 pd~ stop;
#X msg 123 52 pd~ start _main_subpatch.pd -nogui;
#X obj 299 202 pd~, f 11;
#X obj 343 252 dac~;
#X msg 319 173 pd~ stop;
#X msg 301 142 pd~ start _main_subpatch.pd -nogui;
#X connect 0 1 1 0;
#X connect 0 2 1 1;
#X connect 2 0 0 0;
#X connect 3 0 0 0;
#X connect 4 1 5 0;
#X connect 4 2 5 1;
#X connect 6 0 4 0;
#X connect 7 0 4 0;
