#N canvas 232 23 1265 1001 10;
#X obj 972 135 dac~;
#X obj 947 105 catch~ audioout;
#X msg 961 279 \; pd dsp 1;
#X obj 960 253 bng 15 250 50 0 empty empty empty 17 7 0 10 -262144
-1 -1;
#X obj 27 24 ys.audiomidisetup;
#X obj 5 753 s mastercounter;
#X obj 539 415 bng 15 250 50 0 empty empty empty 17 7 0 10 -262144
-1 -1;
#X obj 541 444 s play;
#X obj 59 660 line;
#X msg 109 626 0;
#X obj 66 486 t b b;
#X obj 66 464 bng 15 250 50 0 empty empty empty 17 7 0 10 -262144 -1
-1;
#X obj 73 430 r play;
#X msg 58 625 \$1 \$2;
#X obj 973 176 loadbang;
#X obj 961 209 delay 1000;
#X floatatom 541 273 5 0 0 0 - - -, f 5;
#X obj 541 221 bng 15 250 50 0 empty empty empty 17 7 0 10 -262144
-1 -1;
#X obj 570 208 tgl 15 0 empty empty empty 17 7 0 10 -262144 -1 -1 1
1;
#X obj 572 182 loadbang;
#X obj 547 308 change;
#X obj 547 327 sel 0 1;
#X obj 570 228 metro 10;
#X obj 541 251 wiringPi_gpio 5 1 0;
#X msg 719 241 bang;
#X floatatom 770 415 0 0 0 0 - - -;
#X floatatom 744 441 0 0 0 0 - - -;
#X floatatom 719 468 0 0 0 0 - - -;
#X floatatom 800 305 0 0 0 0 - - -;
#X floatatom 774 331 0 0 0 0 - - -;
#X floatatom 749 358 0 0 0 0 - - -;
#X obj 718 192 loadbang;
#X obj 716 509 print year;
#X obj 766 466 print month;
#X obj 770 437 print day;
#X obj 774 353 print yearday;
#X obj 856 511 * 1000;
#X obj 894 550 +;
#X floatatom 857 572 15 0 0 0 - - -, f 15;
#X obj 559 383 t b b b b;
#X obj 565 362 bng 15 250 50 0 empty empty empty 17 7 0 10 -262144
-1 -1;
#X obj 64 397 throw~ audioout;
#X obj 59 537 i;
#X obj 130 464 r numsteps;
#X obj 130 486 - 1;
#X obj 146 700 hsl 128 15 0 5.86551 0 0 empty empty empty -2 -8 0 10
-262144 -1 -1 12111 1;
#X msg 163 651 range 0 \$1;
#X obj 64 594 pack 0 3000;
#X obj 297 42 bng 15 250 50 0 empty empty empty 17 7 0 10 -262144 -1
-1;
#X obj 122 724 s currenttime;
#X obj 43 327 *~;
#X obj 73 314 line~;
#X obj 63 231 r play;
#X msg 70 284 1 20;
#X obj 62 259 t b b;
#X msg 110 284 0;
#X obj 188 594 delay 3000;
#X obj 201 625 s stop;
#X obj 134 231 r stop;
#X obj 134 253 t b b;
#X msg 145 277 0 1000;
#X obj 875 657 s seed;
#X obj 929 661 print seed;
#X obj 212 552 r length;
#X text 174 197 argument is number of samples to play;
#X obj 220 235 sample_selector;
#X obj 842 546 bng 15 250 50 0 empty empty empty 17 7 0 10 -262144
-1 -1;
#X msg 80 164 vis 5 1;
#X text 317 41 Play all;
#X obj 297 62 s playall;
#X obj 615 327 r playall;
#X obj 873 606 t f b, f 9;
#X floatatom 391 279 5 0 0 0 - - -, f 5;
#X obj 391 298 s reversechance;
#X obj 860 296 zexy;
#X obj 719 270 date;
#X obj 876 693 change;
#X obj 876 715 t b;
#X obj 876 737 s masterbang;
#X obj 49 364 *~ 0.7;
#X obj 36 193 clone ys.agency 8;
#X obj 39 705 loadbang;
#X msg 39 727 500;
#X obj 449 42 hsl 128 15 0 10000 0 0 length length_rcv length_(ms)
-2 -8 0 10 -262144 -1 -1 3810 1;
#X obj 591 42 hsl 128 15 0 24 0 0 numsteps numsteps_rcv number_of_steps
-2 -8 0 10 -262144 -1 -1 3633 1;
#X floatatom 130 508 5 0 0 0 - - -, f 5;
#X obj 731 42 hsl 128 15 0 100 0 0 randomchance randomchance_rcv chance_of_playback
-2 -8 0 10 -262144 -1 -1 8255 1;
#N canvas 20 301 596 378 presets 1;
#X obj 78 114 s randomchance_rcv;
#X msg 74 73 65;
#X obj 73 36 loadbang;
#X floatatom 264 80 5 0 0 0 - - -, f 5;
#X obj 265 27 loadbang;
#X msg 265 49 3000;
#X floatatom 336 71 5 0 0 0 - - -, f 5;
#X obj 336 106 s numsamples;
#X obj 234 112 s length_rcv;
#X msg 64 186 8;
#X obj 63 160 loadbang;
#X obj 66 236 t b f;
#X obj 59 279 s masterbang;
#X floatatom 65 213 5 0 0 0 - - -, f 5;
#X obj 159 258 s numsteps_rcv;
#X obj 146 220 r numsteps;
#X msg 244 198 8;
#X obj 243 225 s pitchrange_rcv;
#X msg 336 49 24;
#X connect 1 0 0 0;
#X connect 2 0 1 0;
#X connect 3 0 8 0;
#X connect 4 0 5 0;
#X connect 4 0 18 0;
#X connect 5 0 3 0;
#X connect 6 0 7 0;
#X connect 9 0 13 0;
#X connect 10 0 9 0;
#X connect 10 0 16 0;
#X connect 11 0 12 0;
#X connect 13 0 11 0;
#X connect 13 0 14 0;
#X connect 15 0 11 0;
#X connect 16 0 17 0;
#X connect 18 0 6 0;
#X restore 423 694 pd presets;
#X obj 448 83 hsl 128 15 0.01 24 0 0 pitchrange pitchrange_rcv pitch_range
-2 -8 0 10 -262144 -1 -1 4100 1;
#X obj 351 520 phasor~ 0.1;
#X obj 351 564 *~;
#X obj 351 586 ys.snapshot 10;
#X floatatom 351 608 5 0 0 0 - - -, f 5;
#X obj 353 670 hsl 128 15 0 5.86551 0 0 empty empty empty -2 -8 0 10
-262144 -1 -1 2674 1;
#X floatatom 351 487 5 0 0 0 - - -, f 5;
#X obj 333 729 s mastercounter;
#X connect 1 0 0 0;
#X connect 1 0 0 1;
#X connect 3 0 2 0;
#X connect 6 0 7 0;
#X connect 8 0 45 0;
#X connect 8 0 49 0;
#X connect 8 0 5 0;
#X connect 9 0 8 0;
#X connect 10 0 42 0;
#X connect 10 1 9 0;
#X connect 10 1 56 0;
#X connect 11 0 10 0;
#X connect 12 0 11 0;
#X connect 13 0 8 0;
#X connect 14 0 15 0;
#X connect 15 0 3 0;
#X connect 16 0 20 0;
#X connect 17 0 23 0;
#X connect 18 0 22 0;
#X connect 19 0 18 0;
#X connect 20 0 21 0;
#X connect 21 1 40 0;
#X connect 22 0 23 0;
#X connect 23 0 16 0;
#X connect 24 0 75 0;
#X connect 25 0 34 0;
#X connect 26 0 33 0;
#X connect 27 0 32 0;
#X connect 27 0 36 0;
#X connect 29 0 35 0;
#X connect 29 0 37 1;
#X connect 31 0 24 0;
#X connect 36 0 37 0;
#X connect 37 0 38 0;
#X connect 38 0 71 0;
#X connect 39 0 6 0;
#X connect 39 3 24 0;
#X connect 40 0 39 0;
#X connect 42 0 47 0;
#X connect 43 0 44 0;
#X connect 44 0 42 1;
#X connect 44 0 46 0;
#X connect 44 0 85 0;
#X connect 44 0 90 1;
#X connect 46 0 45 0;
#X connect 46 0 93 0;
#X connect 47 0 13 0;
#X connect 48 0 69 0;
#X connect 50 0 79 0;
#X connect 51 0 50 1;
#X connect 52 0 54 0;
#X connect 53 0 51 0;
#X connect 54 0 53 0;
#X connect 54 1 55 0;
#X connect 55 0 51 0;
#X connect 56 0 57 0;
#X connect 58 0 59 0;
#X connect 59 0 60 0;
#X connect 60 0 51 0;
#X connect 63 0 56 1;
#X connect 63 0 47 1;
#X connect 66 0 38 0;
#X connect 67 0 80 0;
#X connect 70 0 40 0;
#X connect 71 0 61 0;
#X connect 71 0 62 0;
#X connect 71 0 76 0;
#X connect 72 0 73 0;
#X connect 75 0 27 0;
#X connect 75 1 26 0;
#X connect 75 2 25 0;
#X connect 75 3 30 0;
#X connect 75 4 29 0;
#X connect 75 5 28 0;
#X connect 76 0 77 0;
#X connect 77 0 78 0;
#X connect 79 0 41 0;
#X connect 80 0 50 0;
#X connect 81 0 82 0;
#X connect 82 0 5 0;
#X connect 89 0 90 0;
#X connect 90 0 91 0;
#X connect 91 0 92 0;
#X connect 92 0 93 0;
#X connect 93 0 95 0;
#X connect 94 0 89 0;
