#N canvas 148 23 1266 855 10;
#X obj 972 135 dac~;
#X obj 947 105 catch~ audioout;
#X obj 538 453 s masterbang;
#X msg 961 279 \; pd dsp 1;
#X obj 960 253 bng 15 250 50 0 empty empty empty 17 7 0 10 -262144
-1 -1;
#X obj 333 94 ys.audiomidisetup;
#X obj 5 753 s mastercounter;
#X obj 539 415 bng 15 250 50 0 empty empty empty 17 7 0 10 -262144
-1 -1;
#X obj 489 451 s play;
#X obj 59 660 line;
#X msg 109 626 0;
#X obj 66 486 t b b;
#X obj 66 464 bng 15 250 50 0 empty empty empty 17 7 0 10 -262144 -1
-1;
#X obj 73 430 r play;
#X floatatom 39 110 5 0 0 0 - - -, f 5;
#X msg 58 625 \$1 \$2;
#X text 201 548 length;
#X obj 973 176 loadbang;
#X obj 961 209 delay 1000;
#X floatatom 541 273 5 0 0 0 - - -, f 5;
#X obj 541 221 bng 15 250 50 0 empty empty empty 17 7 0 10 -262144
-1 -1;
#X obj 570 208 tgl 15 0 empty empty empty 17 7 0 10 -262144 -1 -1 1
1;
#X obj 572 182 loadbang;
#X obj 547 308 change;
#X obj 547 327 sel 0 1;
#X obj 570 228 metro 10;
#X obj 541 251 wiringPi_gpio 5 1 0;
#X msg 719 241 bang;
#X floatatom 770 415 0 0 0 0 - - -;
#X floatatom 744 441 0 0 0 0 - - -;
#X floatatom 719 468 0 0 0 0 - - -;
#X floatatom 800 305 0 0 0 0 - - -;
#X floatatom 774 331 0 0 0 0 - - -;
#X floatatom 749 358 0 0 0 0 - - -;
#X obj 718 192 loadbang;
#X obj 716 509 print year;
#X obj 766 466 print month;
#X obj 770 437 print day;
#X obj 774 353 print yearday;
#X obj 856 511 * 1000;
#X obj 894 550 +;
#X floatatom 857 572 15 0 0 0 - - -, f 15;
#X obj 559 383 t b b b b;
#X obj 565 362 bng 15 250 50 0 empty empty empty 17 7 0 10 -262144
-1 -1;
#X obj 64 397 throw~ audioout;
#X obj 586 426 bng 15 250 50 0 empty empty empty 17 7 0 10 -262144
-1 -1;
#X obj 306 153 s numsteps;
#X msg 211 81 8;
#X obj 210 55 loadbang;
#X obj 59 537 i;
#X obj 130 464 r numsteps;
#X obj 130 486 - 1;
#X obj 213 131 t b f;
#X obj 210 154 s masterbang;
#X obj 147 748 hsl 128 15 0 7 0 0 empty empty empty -2 -8 0 10 -262144
-1 -1 12700 1;
#X msg 185 726 range 0 \$1;
#X obj 64 594 pack 0 3000;
#X obj 297 42 bng 15 250 50 0 empty empty empty 17 7 0 10 -262144 -1
-1;
#X obj 124 783 s currenttime;
#X obj 43 327 *~;
#X obj 73 314 line~;
#X obj 63 231 r play;
#X msg 70 284 1 20;
#X obj 62 259 t b b;
#X msg 110 284 0;
#X obj 188 594 delay 3000;
#X obj 201 625 s stop;
#X obj 134 231 r stop;
#X obj 134 253 t b b;
#X msg 145 277 0 1000;
#X obj 875 657 s seed;
#X obj 929 661 print seed;
#X obj 38 139 s length;
#X obj 267 552 r length;
#X obj 40 57 loadbang;
#X msg 40 79 3000;
#X text 174 197 argument is number of samples to play;
#X floatatom 111 101 5 0 0 0 - - -, f 5;
#X obj 111 136 s numsamples;
#X floatatom 212 108 5 0 0 0 - - -, f 5;
#X msg 111 79 34;
#X obj 220 235 sample_selector;
#X obj 842 546 bng 15 250 50 0 empty empty empty 17 7 0 10 -262144
-1 -1;
#X obj 538 113 s randomchance;
#X floatatom 533 80 5 0 0 0 - - -, f 5;
#X obj 496 407 bng 15 250 50 0 empty empty empty 17 7 0 10 -262144
-1 -1;
#X msg 80 164 vis 5 1;
#X floatatom 478 113 5 0 0 0 - - -, f 5;
#X obj 483 146 s randomchance_melody;
#X obj 667 116 s seed;
#X obj 721 120 print seed;
#X obj 665 64 t i b, f 9;
#X floatatom 660 29 5 0 0 0 - - -, f 5;
#X obj 732 91 s masterbang;
#X text 317 41 Play all;
#X obj 297 62 s playall;
#X obj 464 359 r playall;
#X obj 873 606 t f b, f 9;
#X obj 289 311 s pitchrange;
#X floatatom 292 282 5 0 0 0 - - -, f 5;
#X floatatom 391 279 5 0 0 0 - - -, f 5;
#X obj 391 298 s reversechance;
#X obj 860 296 zexy;
#X obj 719 270 date;
#X obj 49 364 *~ 0.8;
#X obj 36 193 clone ys.agency 12;
#X connect 1 0 0 0;
#X connect 1 0 0 1;
#X connect 4 0 3 0;
#X connect 7 0 8 0;
#X connect 9 0 54 0;
#X connect 9 0 58 0;
#X connect 9 0 6 0;
#X connect 10 0 9 0;
#X connect 11 0 49 0;
#X connect 11 1 10 0;
#X connect 11 1 65 0;
#X connect 12 0 11 0;
#X connect 13 0 12 0;
#X connect 14 0 72 0;
#X connect 15 0 9 0;
#X connect 17 0 18 0;
#X connect 18 0 4 0;
#X connect 19 0 23 0;
#X connect 20 0 26 0;
#X connect 21 0 25 0;
#X connect 22 0 21 0;
#X connect 23 0 24 0;
#X connect 24 1 43 0;
#X connect 25 0 26 0;
#X connect 26 0 19 0;
#X connect 27 0 103 0;
#X connect 28 0 37 0;
#X connect 29 0 36 0;
#X connect 30 0 35 0;
#X connect 30 0 39 0;
#X connect 32 0 38 0;
#X connect 32 0 40 1;
#X connect 34 0 27 0;
#X connect 39 0 40 0;
#X connect 40 0 41 0;
#X connect 41 0 97 0;
#X connect 42 0 7 0;
#X connect 42 1 45 0;
#X connect 42 3 27 0;
#X connect 43 0 42 0;
#X connect 45 0 2 0;
#X connect 47 0 79 0;
#X connect 48 0 47 0;
#X connect 49 0 56 0;
#X connect 50 0 51 0;
#X connect 51 0 49 1;
#X connect 51 0 55 0;
#X connect 52 0 53 0;
#X connect 52 1 46 0;
#X connect 55 0 54 0;
#X connect 56 0 15 0;
#X connect 57 0 95 0;
#X connect 59 0 104 0;
#X connect 60 0 59 1;
#X connect 61 0 63 0;
#X connect 62 0 60 0;
#X connect 63 0 62 0;
#X connect 63 1 64 0;
#X connect 64 0 60 0;
#X connect 65 0 66 0;
#X connect 67 0 68 0;
#X connect 68 0 69 0;
#X connect 69 0 60 0;
#X connect 73 0 65 1;
#X connect 73 0 56 1;
#X connect 74 0 75 0;
#X connect 74 0 80 0;
#X connect 75 0 14 0;
#X connect 77 0 78 0;
#X connect 79 0 52 0;
#X connect 80 0 77 0;
#X connect 82 0 41 0;
#X connect 84 0 83 0;
#X connect 85 0 8 0;
#X connect 86 0 105 0;
#X connect 87 0 88 0;
#X connect 91 0 89 0;
#X connect 91 0 90 0;
#X connect 91 1 93 0;
#X connect 92 0 91 0;
#X connect 96 0 7 0;
#X connect 97 0 70 0;
#X connect 97 0 71 0;
#X connect 97 1 45 0;
#X connect 99 0 98 0;
#X connect 100 0 101 0;
#X connect 103 0 30 0;
#X connect 103 1 29 0;
#X connect 103 2 28 0;
#X connect 103 3 33 0;
#X connect 103 4 32 0;
#X connect 103 5 31 0;
#X connect 104 0 44 0;
#X connect 105 0 59 0;
