#N canvas 125 319 1169 589 10;
#N canvas 0 23 450 278 (subpatch) 0;
#X array sample_selector 24 float 3;
#A 0 18 16 2 7 12 23 4 8 6 9 5 21 1 14 15 3 0 11 20 19 13 22 10 17
;
#X coords 0 24 24 0 200 140 1 0 0;
#X restore 60 86 graph;
#X obj 387 109 inlet;
#X obj 389 226 outlet;
#X floatatom 389 151 5 0 0 0 - - -, f 5;
#X floatatom 389 203 5 0 0 0 - - -, f 5;
#X floatatom 373 309 5 0 0 0 - - -, f 5;
#X obj 371 280 r numsamples;
#X obj 606 97 s numsamples;
#X msg 610 64 35;
#X obj 559 322 until;
#X obj 534 213 r masterbang;
#X obj 565 285 i;
#X obj 548 344 ys.loopcounter 16;
#X obj 642 209 r numsamples;
#X obj 760 232 r numsamples;
#X floatatom 665 64 5 0 0 0 - - -, f 5;
#X obj 569 242 bng 15 250 50 0 empty empty empty 17 7 0 10 -262144
-1 -1;
#X floatatom 413 445 5 0 0 0 - - -, f 5;
#X obj 542 385 t b f;
#X obj 370 332 array size sample_selector;
#X obj 475 504 array set sample_selector;
#X msg 766 275 \; sample_selector bounds 0 \$1 \$1 0;
#X obj 389 176 tabread sample_selector;
#X obj 413 423 vurnilla 35;
#X obj 315 265 r seed;
#X msg 337 403 seed \$1;
#X obj 383 372 t f b;
#X msg 405 399 clear;
#X obj 302 324 i;
#X obj 257 299 bng 15 250 50 0 empty empty empty 17 7 0 10 -262144
-1 -1;
#X floatatom 302 346 5 0 0 0 - - -, f 5;
#X obj 645 166 r numsamplestoplay;
#X connect 1 0 3 0;
#X connect 3 0 22 0;
#X connect 4 0 2 0;
#X connect 5 0 19 0;
#X connect 6 0 5 0;
#X connect 8 0 7 0;
#X connect 9 0 12 0;
#X connect 10 0 11 0;
#X connect 10 0 29 0;
#X connect 11 0 9 0;
#X connect 12 0 18 0;
#X connect 13 0 11 1;
#X connect 13 0 12 2;
#X connect 13 0 23 1;
#X connect 14 0 21 0;
#X connect 15 0 7 0;
#X connect 16 0 11 0;
#X connect 18 0 23 0;
#X connect 18 1 20 1;
#X connect 22 0 4 0;
#X connect 23 0 17 0;
#X connect 23 0 20 0;
#X connect 24 0 28 1;
#X connect 25 0 23 0;
#X connect 26 0 25 0;
#X connect 26 1 27 0;
#X connect 27 0 23 0;
#X connect 28 0 26 0;
#X connect 28 0 30 0;
#X connect 29 0 28 0;
