#N canvas 12 23 1544 724 10;
#X obj 611 703 outlet~;
#X obj 164 201 phasor~;
#X floatatom 164 96 5 0 0 0 - - -, f 5;
#X obj 164 74 expr 1/$f1;
#X obj 164 322 *~;
#X obj 47 528 *~;
#X obj 63 427 line~;
#X obj 66 138 t f b;
#X msg 97 169 0;
#X obj 378 430 ys.snapshot 10;
#X obj 382 472 spigot;
#X obj 61 109 r \$1-playing;
#X obj 184 236 r \$1-sample_samples;
#X obj 422 450 r \$1-playing;
#X obj 390 500 s \$1-currentloc;
#X obj 250 60 r \$1-pitch;
#X floatatom 260 86 5 0 0 0 - - -, f 5;
#X obj 50 482 tabread4~ \$1-sound-L;
#X obj 786 709 outlet~;
#X obj 222 534 *~;
#X obj 225 488 tabread4~ \$1-sound-R;
#X obj 163 125 sig~;
#X msg 256 120 \$1 20;
#X obj 256 142 line~;
#X obj 164 153 *~;
#X obj 63 405 pack 0 20;
#X obj 549 175 -;
#X obj 604 151 t b f;
#X floatatom 549 197 5 0 0 0 - - -, f 5;
#X obj 547 236 *;
#X obj 607 71 r \$1-loopstart;
#X obj 505 94 r \$1-loopend;
#X floatatom 547 258 5 0 0 0 - - -, f 5;
#X obj 718 169 *;
#X floatatom 718 191 5 0 0 0 - - -, f 5;
#X obj 741 143 r \$1-sample_samples;
#X obj 351 405 +~;
#X obj 356 188 r \$1-sample_samples;
#X obj 361 263 *~;
#X obj 404 235 sig~;
#X obj 415 346 sig~;
#X obj 124 363 r \$1-envelope;
#X obj 164 38 r \$1-sample_s;
#X obj 602 202 r \$1-sample_s;
#X obj 680 583 tabread4~ \$1-sound-L;
#X obj 855 589 tabread4~ \$1-sound-R;
#X obj 777 483 line~;
#X msg 666 432 0;
#X obj 644 358 t b b;
#X obj 801 505 r \$1-sample_samples;
#X msg 590 443 1 \$1;
#X obj 594 418 i;
#X obj 722 309 r \$1-sample_s;
#X obj 722 331 * 1000;
#X obj 776 529 *~;
#X obj 636 292 r \$1-oneshot;
#X obj 634 331 bng 15 250 50 0 empty empty empty 17 7 0 10 -262144
-1 -1;
#X obj 738 355 r \$1-pitch;
#X obj 672 396 * 1;
#X obj 744 391 t b f;
#X obj 1023 586 tabread4~ \$1-sound-L;
#X obj 1198 592 tabread4~ \$1-sound-R;
#X obj 1120 486 line~;
#X obj 1144 508 r \$1-sample_samples;
#X obj 1119 532 *~;
#X obj 1186 357 t b b;
#X obj 1156 392 i;
#X obj 1237 336 r \$1-sample_s;
#X obj 1237 358 * 1000;
#X obj 1180 330 bng 15 250 50 0 empty empty empty 17 7 0 10 -262144
-1 -1;
#X obj 1144 416 * 1;
#X obj 1191 393 r \$1-pitch;
#X obj 1178 290 r \$1-oneshot-rev;
#X msg 1208 431 1;
#X msg 1137 442 0 \$1;
#X msg 607 600 0 5;
#X msg 539 600 1 5;
#X connect 1 0 4 0;
#X connect 2 0 21 0;
#X connect 3 0 2 0;
#X connect 4 0 36 0;
#X connect 5 0 0 0;
#X connect 6 0 5 1;
#X connect 6 0 19 1;
#X connect 7 0 25 0;
#X connect 7 1 8 0;
#X connect 8 0 1 1;
#X connect 9 0 10 0;
#X connect 10 0 14 0;
#X connect 11 0 7 0;
#X connect 12 0 4 1;
#X connect 13 0 10 1;
#X connect 15 0 16 0;
#X connect 16 0 22 0;
#X connect 17 0 5 0;
#X connect 19 0 18 0;
#X connect 20 0 19 0;
#X connect 21 0 24 0;
#X connect 22 0 23 0;
#X connect 23 0 24 1;
#X connect 24 0 1 0;
#X connect 25 0 6 0;
#X connect 26 0 28 0;
#X connect 27 0 26 0;
#X connect 27 1 26 1;
#X connect 28 0 29 0;
#X connect 28 0 39 0;
#X connect 29 0 32 0;
#X connect 30 0 27 0;
#X connect 30 0 33 0;
#X connect 31 0 26 0;
#X connect 32 0 3 0;
#X connect 33 0 34 0;
#X connect 34 0 40 0;
#X connect 35 0 33 1;
#X connect 36 0 17 0;
#X connect 36 0 20 0;
#X connect 36 0 9 0;
#X connect 37 0 38 1;
#X connect 38 0 4 1;
#X connect 39 0 38 0;
#X connect 40 0 36 1;
#X connect 41 0 25 1;
#X connect 42 0 3 0;
#X connect 43 0 29 1;
#X connect 44 0 0 0;
#X connect 45 0 18 0;
#X connect 46 0 54 0;
#X connect 47 0 46 0;
#X connect 48 0 51 0;
#X connect 48 1 47 0;
#X connect 49 0 54 1;
#X connect 50 0 46 0;
#X connect 51 0 50 0;
#X connect 52 0 53 0;
#X connect 53 0 58 0;
#X connect 54 0 45 0;
#X connect 54 0 44 0;
#X connect 55 0 56 0;
#X connect 56 0 48 0;
#X connect 57 0 59 0;
#X connect 58 0 51 1;
#X connect 59 0 58 0;
#X connect 59 1 58 1;
#X connect 60 0 0 0;
#X connect 61 0 18 0;
#X connect 62 0 64 0;
#X connect 63 0 64 1;
#X connect 64 0 61 0;
#X connect 64 0 60 0;
#X connect 65 0 66 0;
#X connect 65 1 73 0;
#X connect 66 0 70 0;
#X connect 67 0 68 0;
#X connect 68 0 66 1;
#X connect 69 0 65 0;
#X connect 70 0 74 0;
#X connect 71 0 70 1;
#X connect 72 0 69 0;
#X connect 73 0 62 0;
#X connect 74 0 62 0;
