#N canvas 486 23 1118 831 10;
#X obj 347 723 *~;
#X obj 347 828 outlet~;
#X obj 96 33 inlet;
#X msg 322 146 seed \$1;
#X obj 311 7 r seed;
#X floatatom 328 120 15 0 0 0 - - -, f 15;
#X obj 194 146 r mastercounter;
#X obj 362 679 line~;
#X floatatom 191 379 5 0 0 0 - - -, f 5;
#X obj 320 374 * 100;
#X obj 298 438 t b;
#X obj 351 440 t b;
#X obj 300 406 moses 75;
#X obj 463 389 * 100;
#X obj 455 447 t b;
#X obj 508 449 t b;
#X msg 453 485 1;
#X msg 505 489 0;
#X text 132 379 pitch;
#X text 548 386 envelope;
#X text 278 467 forward/reverse;
#X msg 369 648 \$1 \$2;
#X obj 432 573 r fadein;
#X obj 473 611 pack 0 50;
#X msg 472 650 \$1 \$2;
#X obj 535 575 r fadeout;
#X obj 137 646 ys.soundfile_loop_stereo \$1 1;
#X obj 606 422 r randomchance;
#X obj 457 415 moses 65;
#X obj 450 527 bng 15 250 50 0 empty empty empty 17 7 0 10 -262144
-1 -1;
#X floatatom 247 173 5 0 0 0 - - -, f 5;
#X obj 233 217 * 1;
#X obj 236 243 i;
#X obj 283 310 change;
#X obj 355 190 random 20;
#X obj 355 212 * 0.1;
#X obj 463 116 bng 15 250 50 0 empty empty empty 17 7 0 10 -262144
-1 -1;
#X floatatom 355 234 5 0 0 0 - - -, f 5;
#X obj 278 280 %;
#X obj 298 248 r numsteps;
#X obj 465 84 loadbang;
#X obj 216 404 r pitchrange;
#X obj 372 385 r reversechance;
#X obj 416 828 outlet~;
#X obj 413 723 *~;
#X obj 321 45 t b f;
#X obj 570 216 i \$1;
#X obj 572 185 loadbang;
#X obj 555 192 bng 15 250 50 0 empty empty empty 17 7 0 10 -262144
-1 -1;
#X floatatom 570 238 5 0 0 0 - - -, f 5;
#X obj 163 356 ys.randomarray \$1;
#X obj 348 348 ys.randomarray \$1;
#X obj 470 360 ys.randomarray \$1;
#X obj 328 98 * \$1;
#X obj 305 503 bng 15 250 50 0 empty empty empty 17 7 0 10 -262144
-1 -1;
#X obj 350 510 bng 15 250 50 0 empty empty empty 17 7 0 10 -262144
-1 -1;
#X obj 142 398 * 2;
#X floatatom 142 429 5 0 0 0 - - -, f 5;
#X obj 182 471 * 0;
#X floatatom 182 493 5 0 0 0 - - -, f 5;
#X floatatom 182 534 5 0 0 0 - - -, f 5;
#X obj 182 512 + 0.5;
#X obj 241 433 - 1;
#X obj 243 453 abs;
#X floatatom 243 475 5 0 0 0 - - -, f 5;
#X obj 541 727 ys.randomarray \$1;
#X obj 348 773 *~;
#X obj 410 769 *~;
#X obj 675 723 ys.randomarray \$1;
#X msg 542 749 \$1 50;
#X obj 541 770 line~;
#X msg 668 754 \$1 50;
#X obj 668 775 line~;
#X obj 740 565 + 2;
#X obj 756 628 %;
#X obj 778 584 r numsteps;
#X obj 633 644 %;
#X obj 655 600 r numsteps;
#X obj 617 581 + 8;
#X obj 172 607 line;
#X msg 168 580 \$1 \$2;
#X obj 165 559 pack 0 0;
#X obj 132 527 r pitchport;
#X obj 678 318 %;
#X obj 700 274 r numsteps;
#X obj 442 322 %;
#X obj 464 278 r numsteps;
#X obj 426 259 + 18;
#X obj 662 255 + 12;
#X floatatom 461 708 5 0 0 0 - - -, f 5;
#X obj 461 686 ys.snapshot 5;
#X obj 370 609 pack 0 5;
#X connect 0 0 66 0;
#X connect 3 0 34 0;
#X connect 4 0 45 0;
#X connect 5 0 3 0;
#X connect 6 0 30 0;
#X connect 7 0 0 1;
#X connect 7 0 44 1;
#X connect 7 0 90 0;
#X connect 8 0 56 0;
#X connect 9 0 12 0;
#X connect 10 0 26 4;
#X connect 10 0 54 0;
#X connect 11 0 26 5;
#X connect 11 0 55 0;
#X connect 12 0 10 0;
#X connect 12 1 11 0;
#X connect 13 0 28 0;
#X connect 14 0 16 0;
#X connect 15 0 17 0;
#X connect 16 0 29 0;
#X connect 16 0 91 0;
#X connect 17 0 23 0;
#X connect 21 0 7 0;
#X connect 22 0 91 1;
#X connect 23 0 24 0;
#X connect 24 0 7 0;
#X connect 25 0 23 1;
#X connect 26 0 0 0;
#X connect 26 1 44 0;
#X connect 27 0 28 1;
#X connect 28 0 14 0;
#X connect 28 1 15 0;
#X connect 30 0 31 0;
#X connect 31 0 32 0;
#X connect 32 0 38 0;
#X connect 33 0 50 0;
#X connect 33 0 73 0;
#X connect 33 0 78 0;
#X connect 33 0 88 0;
#X connect 33 0 87 0;
#X connect 34 0 35 0;
#X connect 35 0 37 0;
#X connect 36 0 34 0;
#X connect 37 0 31 1;
#X connect 38 0 33 0;
#X connect 39 0 38 1;
#X connect 41 0 58 1;
#X connect 41 0 62 0;
#X connect 42 0 12 1;
#X connect 44 0 67 0;
#X connect 45 0 36 0;
#X connect 45 1 53 0;
#X connect 46 0 49 0;
#X connect 47 0 46 0;
#X connect 48 0 46 0;
#X connect 50 0 8 0;
#X connect 51 0 9 0;
#X connect 52 0 13 0;
#X connect 53 0 5 0;
#X connect 56 0 57 0;
#X connect 57 0 58 0;
#X connect 58 0 59 0;
#X connect 59 0 61 0;
#X connect 60 0 81 0;
#X connect 61 0 60 0;
#X connect 62 0 63 0;
#X connect 63 0 64 0;
#X connect 64 0 61 1;
#X connect 65 0 69 0;
#X connect 66 0 1 0;
#X connect 67 0 43 0;
#X connect 68 0 71 0;
#X connect 69 0 70 0;
#X connect 70 0 66 1;
#X connect 71 0 72 0;
#X connect 72 0 67 1;
#X connect 73 0 74 0;
#X connect 74 0 68 0;
#X connect 75 0 74 1;
#X connect 76 0 65 0;
#X connect 77 0 76 1;
#X connect 78 0 76 0;
#X connect 79 0 26 1;
#X connect 80 0 79 0;
#X connect 81 0 80 0;
#X connect 82 0 81 1;
#X connect 83 0 52 0;
#X connect 84 0 83 1;
#X connect 85 0 51 0;
#X connect 86 0 85 1;
#X connect 87 0 85 0;
#X connect 88 0 83 0;
#X connect 90 0 89 0;
#X connect 91 0 21 0;
