#N canvas 89 120 810 706 10;
#X floatatom 381 133 5 0 0 0 - - -, f 5;
#X obj 113 188 tgl 15 0 empty empty empty 17 7 0 10 -262144 -1 -1 0
1;
#X obj 261 176 / 100;
#X floatatom 261 198 5 0 0 0 - - -, f 5;
#X obj 345 156 random 100;
#X obj 350 180 / 100;
#X floatatom 345 200 5 0 0 0 - - -, f 5;
#X obj 269 120 bng 15 250 50 0 empty empty empty 17 7 0 10 -262144
-1 -1;
#X obj 161 127 random 400;
#X obj 161 149 / 100;
#X floatatom 159 191 5 0 0 0 - - -, f 5;
#X obj 115 458 line~;
#X floatatom 111 367 5 0 0 0 - - -, f 5;
#X obj 52 139 bng 15 250 50 0 empty empty empty 17 7 0 10 -262144 -1
-1;
#X obj 223 376 delay;
#X obj 220 400 random 2000;
#X floatatom 220 422 5 0 0 0 - - -, f 5;
#X obj 115 480 ys.snapshot 5;
#X floatatom 115 502 5 0 0 0 - - -, f 5;
#X msg 115 403 1 \$1;
#X msg 221 447 0 \$1;
#X obj 277 500 *~;
#X obj 109 529 > 0;
#X obj 109 551 change;
#X obj 277 545 outlet~;
#X obj 152 312 ys.soundfile_loop_stereo \$1 1;
#X obj 49 102 inlet;
#X obj 104 106 r masterbang;
#X msg 326 111 seed \$1;
#X obj 311 7 r seed;
#X obj 261 154 random 80;
#X floatatom 493 179 5 0 0 0 - - -, f 5;
#X floatatom 467 223 5 0 0 0 - - -, f 5;
#X floatatom 415 265 5 0 0 0 - - -, f 5;
#X obj 111 345 random 1000;
#X obj 159 169 - 0;
#X obj 411 352 delay;
#X obj 319 49 * \$0;
#X floatatom 319 71 15 0 0 0 - - -, f 15;
#X floatatom 459 335 5 0 0 0 - - -, f 5;
#X obj 411 306 random 1000;
#X connect 2 0 3 0;
#X connect 3 0 25 2;
#X connect 4 0 5 0;
#X connect 4 0 31 0;
#X connect 5 0 6 0;
#X connect 6 0 25 3;
#X connect 7 0 4 0;
#X connect 7 0 8 0;
#X connect 7 0 30 0;
#X connect 8 0 9 0;
#X connect 8 0 33 0;
#X connect 9 0 35 0;
#X connect 10 0 25 1;
#X connect 11 0 17 0;
#X connect 11 0 21 1;
#X connect 12 0 19 0;
#X connect 12 0 14 0;
#X connect 13 0 7 0;
#X connect 13 0 34 0;
#X connect 13 0 40 0;
#X connect 14 0 15 0;
#X connect 15 0 16 0;
#X connect 16 0 20 0;
#X connect 17 0 18 0;
#X connect 18 0 22 0;
#X connect 19 0 11 0;
#X connect 20 0 11 0;
#X connect 21 0 24 0;
#X connect 22 0 23 0;
#X connect 23 0 1 0;
#X connect 25 0 24 0;
#X connect 26 0 13 0;
#X connect 27 0 13 0;
#X connect 28 0 4 0;
#X connect 28 0 8 0;
#X connect 28 0 15 0;
#X connect 28 0 30 0;
#X connect 28 0 34 0;
#X connect 28 0 40 0;
#X connect 29 0 37 0;
#X connect 30 0 2 0;
#X connect 30 0 32 0;
#X connect 34 0 12 0;
#X connect 35 0 10 0;
#X connect 36 0 25 4;
#X connect 37 0 38 0;
#X connect 38 0 28 0;
#X connect 40 0 36 0;
#X connect 40 0 39 0;
