#N canvas 742 23 1001 1005 10;
#X obj 341 872 *~;
#X obj 369 1073 outlet~;
#X obj 96 33 inlet;
#X msg 827 218 seed \$1;
#X obj 816 79 r seed;
#X floatatom 833 192 15 0 0 0 - - -;
#X obj 271 27 r mastercounter;
#X obj 362 679 line~;
#X floatatom 88 381 5 0 0 0 - - -;
#X obj 215 352 * 100;
#X obj 217 443 t b;
#X obj 270 445 t b;
#X obj 214 398 moses 75;
#X obj 463 389 * 100;
#X obj 508 449 t b;
#X msg 453 485 1;
#X msg 505 489 0;
#X text 29 381 pitch;
#X text 548 386 envelope;
#X text 197 472 forward/reverse;
#X msg 369 648 \$1 \$2;
#X obj 432 573 r fadein;
#X obj 473 611 pack 0 50;
#X msg 472 650 \$1 \$2;
#X obj 535 575 r fadeout;
#X obj 81 665 ys.soundfile_loop_stereo \$1 1;
#X obj 606 422 r randomchance;
#X obj 457 415 moses 65;
#X obj 450 527 bng 15 250 50 0 empty empty empty 17 7 0 10 -262144
-1 -1;
#X floatatom 280 55 5 0 0 0 - - -;
#X obj 278 75 * 1;
#X obj 281 101 i;
#X obj 328 168 change;
#X obj 860 262 random 20;
#X obj 860 284 * 0.1;
#X obj 968 188 bng 15 250 50 0 empty empty empty 17 7 0 10 -262144
-1 -1;
#X floatatom 860 306 5 0 0 0 - - -;
#X obj 323 138 %;
#X obj 343 113 r numsteps;
#X obj 970 156 loadbang;
#X obj 113 406 r pitchrange;
#X obj 267 363 r reversechance;
#X obj 438 1073 outlet~;
#X obj 407 872 *~;
#X obj 826 117 t b f;
#X obj 570 216 i \$1;
#X obj 572 185 loadbang;
#X obj 555 192 bng 15 250 50 0 empty empty empty 17 7 0 10 -262144
-1 -1;
#X floatatom 570 238 5 0 0 0 - - -;
#X obj 60 358 ys.randomarray \$1;
#X obj 243 326 ys.randomarray \$1;
#X obj 470 360 ys.randomarray \$1;
#X obj 833 170 * \$1;
#X obj 39 400 * 2;
#X floatatom 39 431 5 0 0 0 - - -;
#X obj 79 473 * 0;
#X floatatom 79 495 5 0 0 0 - - -;
#X floatatom 79 536 5 0 0 0 - - -;
#X obj 79 514 + 0.5;
#X obj 138 435 - 1;
#X obj 140 455 abs;
#X floatatom 140 477 5 0 0 0 - - -;
#X obj 563 683 ys.randomarray \$1;
#X obj 379 1048 *~;
#X obj 441 1044 *~;
#X obj 697 679 ys.randomarray \$1;
#X obj 604 978 line~;
#X obj 721 977 line~;
#X obj 740 565 + 2;
#X obj 756 628 %;
#X obj 778 584 r numsteps;
#X obj 633 644 %;
#X obj 655 600 r numsteps;
#X obj 617 581 + 8;
#X obj 69 609 line;
#X msg 65 582 \$1 \$2;
#X obj 62 561 pack 0 0;
#X obj 117 538 r pitchport;
#X obj 678 318 %;
#X obj 700 274 r numsteps;
#X obj 246 299 %;
#X obj 262 269 r numsteps;
#X obj 233 249 + 18;
#X obj 370 609 pack 0 5;
#X obj 516 535 bng 15 250 50 0 empty empty empty 17 7 0 10 -262144
-1 -1;
#X floatatom 566 412 5 0 0 0 - - -;
#X floatatom 678 339 5 0 0 0 - - -;
#X floatatom 601 297 5 0 0 0 - - -;
#X obj 232 220 + \$1;
#X obj 662 255 + \$1;
#X obj 61 335 %;
#X obj 83 291 r numsteps;
#X obj 59 236 + \$1;
#X obj 60 265 + 25;
#X floatatom 607 901 0 0 0 0 - - -;
#X obj 607 924 dbtorms;
#X floatatom 722 897 0 0 0 0 - - -;
#X obj 722 920 dbtorms;
#X obj 607 947 pack 0 10;
#X obj 722 943 pack 0 10;
#X obj 430 777 delay;
#X floatatom 306 679 5 0 0 0 - - -;
#X floatatom 306 720 5 0 0 0 - - -;
#X floatatom 535 596 5 0 0 0 - - -;
#X obj 326 753 *;
#X obj 241 720 r fadeout;
#X floatatom 326 774 5 0 0 0 - - -;
#X obj 434 743 bng 15 250 50 0 empty empty empty 17 7 0 10 -262144
-1 -1;
#X obj 423 809 bng 15 250 50 0 empty empty empty 17 7 0 10 -262144
-1 -1;
#X msg 452 700 0 5;
#X obj 306 699 / 44.1;
#X obj 734 703 r volume_rand;
#X obj 719 814 abs;
#X floatatom 719 835 5 0 0 0 - - -;
#X obj 714 722 * 0;
#X floatatom 714 743 5 0 0 0 - - -;
#X obj 714 763 - 1;
#X floatatom 714 784 5 0 0 0 - - -;
#X obj 721 871 * 105;
#X obj 617 708 r volume_rand;
#X obj 602 819 abs;
#X floatatom 602 840 5 0 0 0 - - -;
#X obj 597 727 * 0;
#X floatatom 597 748 5 0 0 0 - - -;
#X obj 597 768 - 1;
#X floatatom 597 789 5 0 0 0 - - -;
#X obj 604 865 * 105;
#X obj 639 515 + \$1;
#X obj 455 447 t b b;
#X msg 214 498 1;
#X msg 264 496 2;
#X obj 219 546 i;
#X floatatom 219 567 5 0 0 0 - - -;
#X obj 220 591 sel 1 2;
#X obj 221 614 bng 15 250 50 0 empty empty empty 17 7 0 10 -262144
-1 -1;
#X obj 239 614 bng 15 250 50 0 empty empty empty 17 7 0 10 -262144
-1 -1;
#X connect 0 0 63 0;
#X connect 3 0 33 0;
#X connect 4 0 44 0;
#X connect 5 0 3 0;
#X connect 6 0 29 0;
#X connect 7 0 0 1;
#X connect 7 0 43 1;
#X connect 8 0 53 0;
#X connect 9 0 12 0;
#X connect 10 0 129 0;
#X connect 11 0 130 0;
#X connect 12 0 11 0;
#X connect 12 1 10 0;
#X connect 13 0 27 0;
#X connect 14 0 16 0;
#X connect 15 0 28 0;
#X connect 15 0 83 0;
#X connect 16 0 22 0;
#X connect 16 0 84 0;
#X connect 20 0 7 0;
#X connect 21 0 83 1;
#X connect 22 0 23 0;
#X connect 24 0 22 1;
#X connect 24 0 103 0;
#X connect 25 0 0 0;
#X connect 25 1 43 0;
#X connect 25 3 101 0;
#X connect 26 0 27 1;
#X connect 27 0 128 0;
#X connect 27 1 14 0;
#X connect 28 0 107 0;
#X connect 29 0 30 0;
#X connect 30 0 31 0;
#X connect 31 0 37 0;
#X connect 32 0 87 0;
#X connect 32 0 88 0;
#X connect 32 0 89 0;
#X connect 32 0 92 0;
#X connect 32 0 127 0;
#X connect 33 0 34 0;
#X connect 34 0 36 0;
#X connect 35 0 33 0;
#X connect 37 0 32 0;
#X connect 38 0 37 1;
#X connect 40 0 55 1;
#X connect 40 0 59 0;
#X connect 41 0 12 1;
#X connect 43 0 64 0;
#X connect 44 0 35 0;
#X connect 44 1 52 0;
#X connect 45 0 48 0;
#X connect 46 0 45 0;
#X connect 47 0 45 0;
#X connect 49 0 8 0;
#X connect 50 0 9 0;
#X connect 51 0 13 0;
#X connect 51 0 85 0;
#X connect 52 0 5 0;
#X connect 53 0 54 0;
#X connect 54 0 55 0;
#X connect 55 0 56 0;
#X connect 56 0 58 0;
#X connect 57 0 76 0;
#X connect 58 0 57 0;
#X connect 59 0 60 0;
#X connect 60 0 61 0;
#X connect 61 0 58 1;
#X connect 62 0 122 0;
#X connect 63 0 1 0;
#X connect 64 0 42 0;
#X connect 65 0 114 0;
#X connect 66 0 63 1;
#X connect 67 0 64 1;
#X connect 68 0 69 0;
#X connect 69 0 65 0;
#X connect 70 0 69 1;
#X connect 71 0 62 0;
#X connect 72 0 71 1;
#X connect 73 0 71 0;
#X connect 74 0 25 1;
#X connect 75 0 74 0;
#X connect 76 0 75 0;
#X connect 77 0 76 1;
#X connect 78 0 51 0;
#X connect 78 0 86 0;
#X connect 79 0 78 1;
#X connect 80 0 50 0;
#X connect 81 0 80 1;
#X connect 82 0 80 0;
#X connect 83 0 20 0;
#X connect 88 0 82 0;
#X connect 89 0 78 0;
#X connect 90 0 49 0;
#X connect 91 0 90 1;
#X connect 92 0 93 0;
#X connect 93 0 90 0;
#X connect 94 0 95 0;
#X connect 95 0 98 0;
#X connect 96 0 97 0;
#X connect 97 0 99 0;
#X connect 98 0 66 0;
#X connect 99 0 67 0;
#X connect 100 0 108 0;
#X connect 101 0 110 0;
#X connect 102 0 104 1;
#X connect 104 0 106 0;
#X connect 105 0 104 0;
#X connect 106 0 100 1;
#X connect 107 0 100 0;
#X connect 108 0 109 0;
#X connect 109 0 7 0;
#X connect 110 0 102 0;
#X connect 111 0 114 1;
#X connect 112 0 113 0;
#X connect 113 0 118 0;
#X connect 114 0 115 0;
#X connect 115 0 116 0;
#X connect 116 0 117 0;
#X connect 117 0 112 0;
#X connect 118 0 96 0;
#X connect 119 0 122 1;
#X connect 120 0 121 0;
#X connect 121 0 126 0;
#X connect 122 0 123 0;
#X connect 123 0 124 0;
#X connect 124 0 125 0;
#X connect 125 0 120 0;
#X connect 126 0 94 0;
#X connect 127 0 73 0;
#X connect 127 0 68 0;
#X connect 128 0 15 0;
#X connect 128 1 131 0;
#X connect 129 0 131 1;
#X connect 130 0 131 1;
#X connect 131 0 132 0;
#X connect 132 0 133 0;
#X connect 133 0 134 0;
#X connect 133 1 135 0;
#X connect 134 0 25 4;
#X connect 135 0 25 5;
