#N canvas 1028 466 450 300 10;
#X obj 97 108 i;
#X floatatom 136 159 5 0 0 0 - - -, f 5;
#X obj 154 273 outlet;
#X obj 56 32 inlet;
#X obj 91 58 bng 15 250 50 0 empty empty empty 17 7 0 10 -262144 -1
-1;
#X obj 143 188 % \$1;
#X floatatom 143 210 5 0 0 0 - - -, f 5;
#X obj 136 137 + 1;
#X obj 152 32 i \$1;
#X obj 151 68 - 1;
#X msg 144 100 \$1;
#X obj 150 8 inlet;
#X floatatom 189 132 5 0 0 0 - - -, f 5;
#X obj 214 10 inlet;
#X connect 0 0 7 0;
#X connect 1 0 5 0;
#X connect 3 0 4 0;
#X connect 4 0 0 0;
#X connect 5 0 6 0;
#X connect 6 0 2 0;
#X connect 7 0 1 0;
#X connect 7 0 0 1;
#X connect 8 0 9 0;
#X connect 9 0 10 0;
#X connect 10 0 7 0;
#X connect 10 0 12 0;
#X connect 11 0 8 0;
#X connect 13 0 8 1;
#X connect 13 0 5 1;
