#N canvas 0 606 1150 422 10;
#N canvas 0 22 450 278 (subpatch) 0;
#X array \$0-sound-L 15986 float 2;
#X coords 0 1 15986 -1 200 140 1 0 0;
#X restore 662 162 graph;
#X obj 666 308 hsl 195 15 0 15986 0 0 empty empty empty -2 -8 0 10
-262144 -1 -1 19400 1;
#X obj 68 106 t b b;
#X obj 68 218 soundfiler;
#X obj 68 16 loadbang;
#X floatatom 67 245 5 0 0 0 - - -, f 5;
#X floatatom 66 378 5 0 0 0 - - -, f 5;
#X obj 35 223 bng 15 250 50 0 empty empty empty 17 7 0 10 -262144 -1
-1;
#X obj 271 270 t b f;
#X obj 68 134 symbol \$1;
#X obj 271 193 samplerate~;
#X floatatom 271 215 5 0 0 0 - - -, f 5;
#X obj 276 166 bng 15 250 50 0 empty empty empty 17 7 0 10 -262144
-1 -1;
#X obj 282 140 loadbang;
#X obj 97 49 bng 15 250 50 0 empty empty empty 17 7 0 10 -262144 -1
-1;
#X obj 180 145 i \$0;
#X obj 68 163 pack s f;
#X obj 79 281 s \$0-sample_samples;
#X obj 120 79 openpanel;
#X obj 128 56 bng 15 250 50 0 empty empty empty 17 7 0 10 -262144 -1
-1;
#X msg 68 191 read -resize \$1 \$2-sound-L;
#X obj 404 11 inlet;
#X obj 410 385 outlet~;
#X obj 410 363 tabplay~ \$0-sound-L;
#X obj 405 283 pack 0 0;
#X obj 406 193 bng 15 250 50 0 empty empty empty 17 7 0 10 -262144
-1 -1;
#X obj 458 253 r \$0-sample_samples;
#X obj 603 283 line;
#X msg 595 335 range 0 \$1;
#X obj 407 130 t b b b;
#X msg 603 221 0;
#X obj 66 343 / 44.1;
#X obj 176 239 unpack 0 0 0;
#X floatatom 300 304 5 0 0 0 - - -, f 5;
#X obj 215 354 / 1000;
#X obj 516 148 pack 0 0 0;
#X msg 537 174 \$2 \$3;
#X obj 532 20 r \$0-sample_samples;
#X obj 68 400 s \$0-sample_ms;
#X obj 576 50 r \$0-sample_ms;
#X obj 403 31 bng 15 250 50 0 empty empty empty 17 7 0 10 -262144 -1
-1;
#X connect 2 0 9 0;
#X connect 2 1 15 0;
#X connect 3 0 5 0;
#X connect 3 1 32 0;
#X connect 4 0 2 0;
#X connect 5 0 17 0;
#X connect 5 0 31 0;
#X connect 6 0 38 0;
#X connect 7 0 5 0;
#X connect 8 0 31 0;
#X connect 8 1 33 0;
#X connect 8 1 34 0;
#X connect 9 0 16 0;
#X connect 10 0 11 0;
#X connect 12 0 10 0;
#X connect 13 0 12 0;
#X connect 14 0 2 0;
#X connect 15 0 16 1;
#X connect 16 0 20 0;
#X connect 18 0 9 0;
#X connect 19 0 18 0;
#X connect 20 0 3 0;
#X connect 21 0 40 0;
#X connect 23 0 22 0;
#X connect 24 0 23 0;
#X connect 25 0 24 0;
#X connect 26 0 24 1;
#X connect 26 0 28 0;
#X connect 27 0 1 0;
#X connect 28 0 1 0;
#X connect 29 0 35 0;
#X connect 29 1 30 0;
#X connect 29 2 25 0;
#X connect 30 0 27 0;
#X connect 31 0 6 0;
#X connect 32 0 8 0;
#X connect 34 0 31 1;
#X connect 35 0 36 0;
#X connect 36 0 27 0;
#X connect 37 0 35 1;
#X connect 39 0 35 2;
#X connect 40 0 29 0;
