#N canvas 105 336 450 300 10;
#X obj 123 204 random 400;
#X obj 123 226 / 100;
#X floatatom 123 248 5 0 0 0 - - -, f 5;
#X msg 212 150 seed \$1;
#X obj 213 28 r seed;
#X floatatom 212 128 15 0 0 0 - - -, f 15;
#X obj 112 112 r masterbang;
#X obj 133 282 outlet;
#X obj 257 183 i \$1;
#X obj 257 205 * 100;
#X obj 288 167 loadbang;
#X obj 213 75 * 1000;
#X obj 213 97 i;
#X obj 214 53 * \$0;
#X connect 0 0 1 0;
#X connect 1 0 2 0;
#X connect 2 0 7 0;
#X connect 3 0 0 0;
#X connect 4 0 13 0;
#X connect 5 0 3 0;
#X connect 6 0 0 0;
#X connect 8 0 9 0;
#X connect 9 0 0 1;
#X connect 10 0 8 0;
#X connect 11 0 12 0;
#X connect 12 0 5 0;
#X connect 13 0 11 0;
